<?xml version="1.0" standalone="no"?>
<!DOCTYPE svg PUBLIC "-//W3C//DTD SVG 1.1//EN" "http://www.w3.org/Graphics/SVG/1.1/DTD/svg11.dtd" >
<svg xmlns="http://www.w3.org/2000/svg" xmlns:xlink="http://www.w3.org/1999/xlink" version="1.1">
<metadata>
Created by FontForge 20170731 at Thu Jul 11 11:59:13 2019
 By Aleksey,,,
(c) 2019. Rantautype
</metadata>
<defs>
<font id="JustBlossomRegular" horiz-adv-x="0" >
  <font-face 
    font-family="Just Blossom"
    font-weight="400"
    font-stretch="normal"
    units-per-em="1000"
    panose-1="0 0 0 0 0 0 0 0 0 0"
    ascent="800"
    descent="-200"
    x-height="263"
    cap-height="709"
    bbox="-114.629 -604 774.222 859.696"
    underline-thickness="50"
    underline-position="-200"
    unicode-range="U+000A-FB06"
  />
<missing-glyph horiz-adv-x="527" 
d="M50 700h427v-700h-427v700zM78 680l185 -309l186 309h-371zM251 350l-180 300v-601zM264 329l-185 -308h370zM276 350l181 -303v605z" />
    <glyph glyph-name="ej.liga" unicode="ej" horiz-adv-x="385" 
d="M300 300q-5 2 -4 9q0 14 13 23q3 2 4 3q5 4 12 7l2 1q8 3 11 1t2 -9q0 -14 -14 -24q-4 -3 -5.5 -3.5t-5.5 -3.5v-1l-6 -2q-3 -2 -6 -2q-2 0 -3 1zM366 40q8 -222 -29 -357q-29 -106 -85 -182q-10 -14 -24 -30t-43 -35.5t-55 -19.5q-11 0 -22 4q-61 22 -26 163
q22 93 75 199q72 144 181 261q0 10 -1 23q-3 104 -17 153q-5 14 -13 16h-1q-11 2 -45 -49l-7 -13q-14 -22 -20 -31v0l-1 1l1 -1q-42 -68 -75 -103.5t-69 -35.5q-26 0 -44.5 13.5t-27 31.5t-10.5 39q-7 69 38 136q57 82 102 52v-1l2 -2q21 -30 -17 -80q-33 -43 -83 -82
q-4 -3 -8 -2q-4 2 -5 10q-2 12 14 24q92 70 75 100q-13 7 -27 2q-13 -5 -26 -21t-21 -32t-11 -29q-14 -47 2 -84q18 -45 43 -48h3q13 0 28 10.5t32.5 33.5t29 39t31.5 47t29 45q28 47 63 66q15 8 26 2q32 -18 35 -156q0 -7 1 -10q1 -21 1 -39q2 -19 1 -28zM320 -285
q25 114 19 296q-88 -97 -148 -210q-41 -76 -68 -159q-20 -59 -23 -96q-6 -63 15 -83q7 -7 16 -9.5t18.5 -0.5t19.5 6.5t19.5 10.5t17.5 13q27 23 55 71q40 69 59 161z" />
    <glyph glyph-name="ef.liga" unicode="ef" horiz-adv-x="366" 
d="M363 536q21 -19 7 -119q-1 -9 -2 -11q-11 -103 -42 -199q-22 -67 -39 -101q-13 -25 -31 -32l-4 -4q4 -27 10 -55q8 13 21 32q22 32 51 64q10 11 16 5q4 -3 3 -11t-6 -14q-33 -36 -59 -75q-12 -19 -20 -30v-1q6 -30 24 -89q22 -72 28 -109q17 -89 -21 -123
q-17 -16 -40 -16q-4 0 -8 1q-40 5 -67 44q-40 59 -12 151q21 67 65 136q-7 36 -11 66l-1 2q-19 -13 -42.5 -24t-46 -17.5t-40.5 -7.5q-36 -2 -57.5 23t-24.5 61q-8 69 38 136q56 82 101 52q1 0 1 -1h1v-1h1q21 -31 -17 -81q-33 -43 -83 -81q-5 -4 -8 -2q-5 1 -6 9
q-1 12 14 24h1q91 70 75 100q-13 8 -27 2q-19 -7 -35.5 -33t-23.5 -49q-15 -52 -1 -83q15 -35 47 -46q42 -14 89 14h1q19 7 41 27q-25 211 37 356q17 39 41 73q1 1 3 4q23 34 40 37q12 3 19 -4zM244 -50q-94 -157 -30 -235q21 -26 47 -29q20 -3 29 6q11 11 7 48
q-4 35 -22 98q-20 69 -31 112zM346 474q1 17 -6 21q-2 1 -4 1q-6 0 -16 -8q-6 -4 -12 -17q-3 -4 -4 -6q-14 -24 -25 -51q-51 -132 -30 -315q25 33 43 79q10 28 17 53q18 63 28 128q9 61 9 115z" />
    <glyph glyph-name="fj.liga" unicode="fj" horiz-adv-x="507" 
d="M474 22q8 -223 -29 -359q-29 -106 -85 -182q-10 -14 -24 -30t-43 -35.5t-55 -19.5q-11 0 -21 4q-62 22 -27 163q22 94 75 199q71 141 181 263v20q-4 103 -18 151q-7 22 -27 27q-41 10 -116 -57q-105 -117 -152 -181q6 -30 24 -88q22 -72 28 -109q17 -90 -21 -124
q-21 -18 -48 -15q-40 5 -67 45q-40 58 -12 151q21 67 65 136q-7 35 -12 65q-30 226 35 381q17 38 40 72q3 4 4 4q23 34 40 38q12 2 19 -5q21 -19 7 -119q-2 -8 -2 -11q-11 -103 -43 -199q-21 -67 -38 -101q-13 -25 -31 -31q-3 -1 -4 -1q4 -29 9 -57q43 60 116 137
q21 22 38 38h1q8 9 21.5 21.5t45 32.5t54.5 20h1q20 0 33 -13q32 -18 35 -155q1 -8 1 -11q0 -15 1 -36q1 -10 1 -14v-15zM429 -305q24 114 18 297q-89 -100 -148 -211q-41 -76 -68 -159q-20 -59 -23 -96q-6 -63 15 -83q11 -12 28 -10.5t32.5 9.5t30.5 21q27 23 55 72
q40 68 60 160zM144 414q-53 -134 -30 -321q6 14 14 16q8 3 22 49q2 8 3 10q12 31 21 63q18 64 28 128q8 61 9 116q0 17 -6.5 20t-20.5 -7q-5 -3 -12 -16q-2 -5 -3 -7q-14 -24 -25 -51zM155 -308q11 11 7 48q-4 35 -22 98q-20 69 -31 112q-94 -157 -30 -235q21 -26 46 -29
q20 -3 30 6zM386 283q-5 2 -5 9q1 14 14 24l28 21q5 3 9 1q5 -3 5 -9q-1 -14 -14 -24l-28 -21q-3 -2 -6 -2q-2 0 -3 1z" />
    <glyph glyph-name="ll.liga" unicode="ll" horiz-adv-x="391" 
d="M405 112q6 -2 3 -13q-4 -11 -9.5 -24t-16 -33t-25.5 -33t-31 -13q-3 0 -7 1q-54 9 -80 128l-2 -6q0 -1 -1 -3q-11 -31 -38 -57q-30 -28 -64 -28q-51 1 -82 113q-2 11 -3 17q-2 6 -4 15q-36 179 -14 339q12 85 41 119q17 20 40 18q24 -2 40 -27q13 -22 14 -53.5t-5 -61.5
q-11 -72 -37 -158q-13 -42 -41 -125q-9 -24 -13 -38q2 -11 6 -27q10 -45 24 -68q16 -27 28 -31q16 -6 32 0.5t27.5 19.5t18.5 24.5t10 20.5q4 10 11 33l3 8q-43 213 -17 403q14 102 49 141q20 24 47 22q29 -2 47 -32q16 -26 17.5 -63.5t-6.5 -72.5q-13 -86 -44 -189
q-15 -48 -48 -144q-11 -34 -16 -50q3 -17 6 -31q13 -54 29 -82l1 -1q19 -33 33 -36q33 -6 54 58q2 7 10 14t13 6zM237 550q-9 -104 -1 -211q5 -56 14 -110q22 65 35 106q34 105 49 183q0 2 2 13q5 25 7 39t3.5 36t-3 39.5t-14.5 31.5q-15 21 -33 23h-2q-13 0 -25 -13
q-7 -7 -15 -36q-1 -5 -2 -7q-10 -38 -15 -94zM135 480q5 28 7.5 44t0 40t-13.5 39q-13 18 -28 19q-12 1 -23 -11q-6 -6 -12 -31q-1 -3 -1 -5q-9 -31 -14 -79q-7 -87 0 -177q4 -47 11 -91l2 4q19 55 28 84q28 88 41 154q0 2 2 10z" />
    <glyph glyph-name="ss.liga" unicode="ss" horiz-adv-x="293" 
d="M302 139q3 -1 3 -3q0 -3 -5 -6q-11 -7 -30 -17q-9 -5 -16 -9q-2 -28 -16 -53t-35 -39q-19 -12 -36 -12q-13 0 -21 8q-9 13 -9 20.5t7 21.5q6 12 19.5 23.5t24.5 18t34 18.5l5 3q-5 17 -20 28q-1 0 -2 -1q-11 -7 -35 -21q-21 -11 -27 -15q-2 -28 -16 -53t-35 -39
q-38 -24 -57 -4q-9 13 -9 20.5t7 21.5q9 18 28.5 32.5t53.5 32.5q-3 11 -11.5 19.5t-16.5 12.5t-22 10q-34 13 -40 32q-6 16 8 38q7 10 16 19t20.5 16t22.5 8q17 2 30 -10q4 -4 2 -12q-3 -16 -14 -19q-4 -1 -6 1q-9 8 -23 6.5t-24 -10.5q-13 -11 -4 -24q6 -8 31 -16
q8 -3 12 -4q37 -15 45 -53v-1q11 6 19 10q16 8 27 14q-5 2 -11 5q-34 13 -40 32q-6 16 8 38q11 16 27 29t32 14q17 2 30 -10q4 -5 2 -12.5t-7 -13.5q-8 -8 -13 -4q-9 8 -23 6.5t-24 -10.5q-13 -11 -4 -24q6 -8 31 -16q8 -3 12 -4q37 -16 45 -53v-2q11 6 20 11q4 3 15 3
t15 -2zM170 38q0 -4 8 -6q13 -3 25 5q21 15 25 51q-60 -36 -58 -50zM59 38q0 -4 8 -6q13 -3 25 5q21 15 25 51q-61 -36 -58 -50z" />
    <glyph glyph-name="op.liga" unicode="op" horiz-adv-x="420" 
d="M378 196q38 -44 16 -107q-9 -23 -26 -46t-39 -41.5t-46 -28.5q0 -45 -1 -103l-2 -208v-20q-4 -134 0 -154q4 1 6 -2q8 -11 -4 -25l-2 -3q-7 -8 -12 -8h-2q-17 3 -14 40q1 7 1 10q-1 49 0 100q0 103 1 216q1 69 2 148q-28 -6 -52 3q-7 2 -4 10q3 7 12.5 14.5t15.5 4.5
q14 -5 29 -4q1 101 4 195l-3 -1q-2 -1 -3 -1q-26 -8 -80 -8q9 -77 -25 -139q-21 -39 -52 -39q-7 0 -13 1q-14 5 -25.5 18.5t-16 24.5t-10.5 30v2q-18 55 -12 105q5 42 24 53q10 6 23 1q4 -2 5 -7q1 -11 -9 -19q-6 -4 -11 -1h-1q-5 -7 -4.5 -32t4.5 -48q5 -27 19.5 -60.5
t30.5 -38.5q9 -3 18 4q21 19 27.5 62.5t3.5 71.5q-1 6 -2 11q-42 -2 -59 15q-13 13 -12 31q1 21 16 35q15 13 32 9q25 -6 37 -37q4 -12 7 -24h7q54 -1 79 7h1q2 1 3 1h2v11q1 8 1 15q0 4 3 8.5t6.5 8.5t7.5 6q5 3 7 1q4 -2 3 -9v-22q0 -2 -0.5 -6.5t-0.5 -6.5q60 10 89 -24z
M368 111q3 46 -33 70q-19 14 -47 11q-2 -91 -4 -193q33 14 57.5 47t26.5 65zM143 206q-5 13 -11 22q-9 11 -21 11h-1q-5 -1 -7 -6q-4 -11 11 -21q10 -7 29 -6z" />
    <glyph glyph-name="mt.liga" unicode="mt" horiz-adv-x="368" 
d="M344 295q4 -5 2 -15t-7 -13q-28 -17 -62 -38q-2 -58 -2 -78q0 -4 1 -8v-3q1 -2 0 -5q1 -34 4 -62v-4q2 -24 6 -32q4 -7 7.5 -8t8.5 5t7 13q5 12 18 14q6 1 9 -3q4 -5 1 -14q-19 -48 -49 -48h-1h-2q-31 3 -35 64l-1 4q-1 14 -1 35q-14 -13 -34 -29q-13 -10 -25 -6
q-13 6 -22 27.5t-12 43.5v3q-4 44 -8 45q-3 1 -6 -1q-7 -5 -12 -31q0 -3 -1 -4q-1 -7 -4 -26q-7 -40 -11 -52q-2 -4 -8.5 -10.5t-10.5 -6.5h-1q-4 1 -6 7q-4 20 -10 79q-1 14 -2 21q-1 5 -2 16q-1 26 -6 38q-17 -35 -22 -90q-1 -58 0 -94q0 -6 -8.5 -15.5t-14.5 -9.5
q-4 0 -5 6v3q-2 44 1 80q0 84 3 148q0 7 7.5 16t13.5 9t6 -10v-36q8 17 18 31q5 8 12 8h1q3 0 6 -3q12 -15 15 -52q0 -7 1 -10v-9q3 -24 4 -37q12 60 37 74q10 6 17 2q15 -7 26 -69q9 -52 19 -55q5 -2 12 6q17 16 32 27q0 33 2 78q-32 -21 -49 -32q-5 -3 -8 -2q-4 2 -4 10
q-1 16 7 22q21 14 55 35q2 62 7 172q2 34 2 42q1 13 15 20q6 3 10.5 0t4.5 -10q0 -14 -4 -75q-5 -83 -7 -131q34 22 55 35q7 4 10 -2z" />
    <glyph glyph-name="nt.liga" unicode="nt" horiz-adv-x="326" 
d="M317 248q4 -2 4 -11q0 -15 -8 -20q-29 -17 -64 -39v-18q2 -45 4 -78l1 -5q1 -23 6 -31q4 -7 7 -8t8 4.5t8 13.5q5 12 17 14q6 0 10 -4q4 -5 1 -13q-19 -48 -50 -48h-1.5h-1.5q-26 2 -33 42q-21 -42 -46 -42h-1q-10 0 -18 7t-13 20.5t-7.5 22.5t-5.5 25q-2 7 -2 9
q-2 11 -6 31q-6 34 -11 51q-1 3 -2 9q-5 23 -11 30q-12 11 -20 9q-9 -2 -13 -19q-7 -29 -8 -90q-1 -53 -6 -79q-1 -5 -8.5 -13.5t-12.5 -8.5t-6 7q-16 96 -8 193q0 6 6 13.5t12 10.5q4 2 6 0q3 -2 3 -9q-1 -9 -1 -20q16 54 46 57h4q9 0 17 -6t13 -14t9.5 -21.5t6.5 -21
t4 -20.5q1 -5 2 -8q2 -9 6 -30q5 -27 8 -40q0 -2 1 -6q7 -29 13 -40q5 -8 12 -7q9 1 19 15.5t15 30.5q-1 26 0 68l-1 -1q-31 -20 -46 -30q-4 -3 -8 -2q-4 2 -4 10q-1 16 7 22q20 13 54 34q2 45 7 135q4 53 5 73q0 13 14 20q6 3 11 0t5 -9q-1 -20 -7 -85q-6 -82 -8 -116
q33 21 58 35q4 3 8 1z" />
    <glyph glyph-name="vp.liga" unicode="vp" horiz-adv-x="484" 
d="M456 143q32 -48 2 -108q-15 -30 -45.5 -57t-64.5 -41q-1 -50 -2 -109q-1 -107 -2 -208v-20q-4 -96 0 -111q4 0 6 -3q3 -3 2 -11t-5 -13l-3 -4q-6 -8 -12 -8h-1q-17 3 -15 41q1 7 1 10v100q0 54 1 129v43q1 75 3 156q-38 -7 -67 8q-6 3 -2 10q3 7 13.5 13t17.5 3
q17 -9 38 -7q2 94 4 181q-2 -1 -4 -1q-5 0 -18 -2q-60 -5 -87 2q-2 -4 -3 -5q-5 -12 -17 -34q-33 -66 -48 -100l-2 -4q-7 -12 -13 -14q-7 -2 -15.5 2.5t-11.5 16.5q-10 36 -24.5 73t-25.5 61t-34 71l-1 2q-4 8 5 21q8 12 15 12q3 -1 5 -4q53 -108 86 -220q12 28 39 82
q10 18 14 28q4 8 12 21q-15 9 -18 25q-5 28 22 55q26 26 53 21q8 -2 6 -15q-4 -22 -24 -59q5 0 13 -1h4q21 -2 65 0l8 1l1 10v15q0 6 6 13.5t11 10.5q5 2 8 1q3 -2 3 -9q-1 -10 -1 -25l-1 -12q35 3 60.5 -3t42.5 -30zM435 60q8 45 -24 74q-21 18 -58 16q-3 -89 -5 -188
q32 13 57 41t30 57zM229 210q-14 -1 -19 -10q-3 -7 1 -15q2 -3 5 -5q9 17 13 30z" />
    <glyph glyph-name="wp.liga" unicode="wp" horiz-adv-x="455" 
d="M417 170q32 -47 2 -107q-15 -30 -45.5 -57t-64.5 -41q-1 -53 -1 -109q-2 -108 -2 -209q0 -2 -1 -19q-4 -125 0 -144q4 1 6 -2q8 -11 -3 -25l-3 -3q-6 -8 -12 -8h-1q-17 3 -14 40v10v133q0 55 1 127q1 37 1 45q1 77 2 156q-37 -7 -66 8q-4 1 -4 5q-1 8 12 16t20 5
q17 -9 38 -7q2 98 5 188q-19 -2 -55 -2q2 -20 3 -61v-7q1 -32 -12.5 -72t-35.5 -41h-5q-36 0 -50.5 17t-25.5 61q-6 -19 -14.5 -33t-19.5 -18q-10 -3 -18 3q-33 23 -32 188v4q0 6 7.5 15.5t13.5 9.5q5 0 6 -6.5t1 -10.5q1 -3 -1 -8q1 -37 4 -71q1 -4 1 -16q3 -40 10 -54
q6 -13 11 -12q3 1 5.5 6.5t4.5 13.5t3 16.5t2 15.5q1 23 -2 57q0 2 -1 4v4v2h1h-1l-1 1v2v2q-1 4 2.5 11t8.5 12t9 5q6 1 6 -6h1q8 -64 15 -95q1 -4 2 -11q12 -58 31 -69q11 -7 19 -3q18 9 24 57h-1v1q1 2 1 6l1 1q6 39 2 68q0 3 -1 10h-17q-28 1 -43 15q-12 13 -12 32
q1 20 16 34q15 13 32 9t29 -22l1 -1q4 -7 7 -14q3 -8 5 -15q1 -4 2 -9h7q37 0 55 2v5.5v5.5v14q1 6 6.5 13.5t10.5 10.5q5 2 8 0t3 -8q0 -8 -1 -22v-14h4q71 5 98 -35zM396 88q8 45 -24 74q-20 18 -58 15q-3 -87 -4 -187q31 13 56 41t30 57zM199 198q-4 13 -11 22
q-6 8 -16 11h-4h-1h-1q-4 0 -6 -6q-4 -11 11 -21h1q9 -6 27 -6z" />
    <glyph glyph-name="mm.liga" unicode="mm" horiz-adv-x="372" 
d="M389 118q3 -4 -2.5 -14t-17.5 -20q-9 -9 -18 -5q-7 2 -13 12t-9 21t-5 21v1v2q-3 31 -6 33q-2 1 -4 -1q-5 -3 -9 -23v-3q-2 -5 -4 -19q-5 -30 -8 -39q-2 -4 -6.5 -9t-8.5 -5q-4 1 -5 6q-3 15 -8 60q-1 10 -1 16q-1 3 -1 11q-2 20 -5 28q-13 -26 -16 -67q-1 -43 -1 -71
q0 -3 -3 -7.5t-7 -8t-7 -3.5q-4 0 -4 5v2h1h-1q-1 18 -1 34q-3 -4 -6 -7q-12 -11 -24 -6q-13 5 -22.5 27t-12.5 44v4q-4 43 -8 44q-3 1 -6 -1q-7 -5 -12 -30q-1 -4 -1 -5q-1 -7 -4 -25q-7 -40 -12 -52q-1 -4 -7.5 -10.5t-11.5 -6.5q-4 0 -6 6q-4 20 -10 79l-2 22q-1 5 -2 15
q-2 27 -6 38q-17 -35 -22 -90q-1 -55 -1 -94q0 -6 -8 -15.5t-14 -9.5q-5 0 -5 6v4q-2 44 0 80q1 83 4 147q0 5 3.5 11t8.5 10t9 4q6 0 6 -9l-1 -36q9 17 19 31q5 8 12 8q4 0 6 -3q12 -16 15 -52q1 -7 1 -11l1 -8q2 -21 4 -38q12 60 37 75q10 5 17 2q14 -7 24 -65
q8 -54 19 -58q6 -2 14 4q3 2 5 4q1 60 3 105q0 4 3 8.5t6.5 7.5t6.5 3q5 0 5 -7v-26q6 12 13 22q4 7 10 7q3 0 5 -3q9 -11 11 -39q0 -4 1 -8v-7q2 -15 3 -26q9 44 28 55q7 4 13 1q10 -5 18 -49q6 -40 14 -44q5 -1 11 3q14 11 18 7z" />
    <glyph glyph-name="nn.liga" unicode="nn" horiz-adv-x="374" 
d="M383 137q4 -48 -17 -71q-9 -10 -21 -10q-23 0 -33 49q0 3 -1 5q-1 7 -4 29q-7 45 -10 49q-7 6 -12 5q-7 -2 -11 -18q-5 -22 -6 -70q-1 -42 -4 -61q-1 -4 -6.5 -10t-9.5 -6q-3 0 -4 5q-2 8 -3 17q-13 -15 -30 -15q-11 0 -19 6t-13 18.5t-7.5 21t-4.5 21.5q-1 5 -2 7
q-2 9 -6 40q-9 62 -14 68q-9 9 -16 7q-11 -3 -16 -26q-7 -29 -8 -95q-1 -58 -6 -85q0 -3 -3.5 -8t-8.5 -9t-9 -4t-6 6q-16 100 -8 205q0 4 4 10t9 10t9 4q6 0 5 -9t-1 -21q16 54 46 58h2q8 0 15 -6t12 -17t9 -21.5t7.5 -27.5t5.5 -26t5 -24q2 -14 3 -18q0 -2 1 -6
q7 -29 14 -40q3 -7 8 -7q9 1 19 25q-3 46 0 90q1 5 7 11.5t10 6.5t4 -7q0 -5 -1 -12q12 36 34 39h1q24 0 39 -89q2 -11 3 -13l1 -4q4 -21 9 -29q3 -5 6 -5q6 1 13 16.5t10 28.5q1 9 2.5 14t2.5 5.5t2 0.5q2 0 3 -8z" />
    <glyph glyph-name="ye.liga" unicode="ye" horiz-adv-x="410" 
d="M436 127q3 -8 -20 -35q-55 -64 -103 -67q-31 -2 -50 22q-31 -54 -74 -149v-47q-1 -98 -9 -185q-8 -94 -27 -138q-26 -59 -70 -79q-14 -7 -27 -7q-11 0 -19 5q-17 10 -19 36q-3 43 10 95t26.5 84.5t39.5 88.5l4 8q12 27 37 83q17 40 27 61q-1 107 -8 244q-8 -32 -16 -57
q-1 -4 -4 -14q-6 -20 -10 -31.5t-13.5 -26.5t-21.5 -21q-15 -9 -28 -2q-19 11 -32.5 54.5t-16.5 71t-5 49.5q0 5 5 13.5t12 12.5q4 3 7 2t3 -6q4 -52 8 -72.5t21 -67.5q7 -20 16 -20t18 16t13 29q8 24 15 49q10 36 23 120q1 2 4.5 8.5t9 11.5t9.5 5t4 -7q12 -179 14 -303
q32 66 60 110q-4 12 -6 25q-6 58 33 114q47 69 85 44l2 -2q8 -6 4.5 -25t-18.5 -43q-4 -6 -13 -21q-34 -59 -52 -82q-1 -1 -3 -4l-0.5 -0.5t-0.5 -1.5q13 -19 33 -20h3q22 0 48.5 18.5t48.5 44.5q11 13 20 11q2 0 3 -2zM335 213q4 10 0 14q-2 2 -6 2t-10 -2q-15 -6 -29 -28
t-19 -40q-9 -32 -2 -59q2 4 9 16q39 60 57 97zM162 -165q-34 -78 -51 -113q-44 -88 -57 -148q0 -2 -1 -6q-16 -68 -3 -83q9 -11 22 -9q16 2 32 18t24 31q21 43 27 148q1 18 1 26q5 64 6 136z" />
    <glyph glyph-name="se.liga" unicode="se" horiz-adv-x="328" 
d="M358 127q3 -8 -21 -35q-54 -64 -103 -67h-4q-28 0 -45 21t-20 50q-1 10 0 21q-7 -4 -22 -11l-4 -2q-1 -1 -3 -2q-2 -28 -16 -53t-35 -39q-19 -12 -36 -12q-13 0 -21 8q-9 13 -9 20.5t7 21.5q9 18 29 32.5t53 32.5q-5 16 -17 24.5t-33 17.5q-12 4 -20 9t-13 11t-7 12
q-6 16 8 38q11 16 27 29t32 14q17 2 30 -10q4 -5 2 -12.5t-8 -13.5q-7 -8 -12 -4q-9 8 -23 6.5t-24 -10.5q-13 -11 -4 -24q6 -8 31 -16q8 -3 12 -4q37 -16 45 -53v-1l20 10q1 1 14 9q8 35 29 65q48 69 86 44l1 -1l1 -1q8 -9 7 -22q-1 -23 -30 -48.5t-74 -51.5q-1 -24 7 -42
q12 -29 36 -33q23 -3 51 15.5t53 47.5q11 13 19 11q3 0 4 -2zM241 227q-15 -6 -28.5 -27.5t-19.5 -39.5q51 33 63 51v1v1q5 10 1 14q-2 2 -6 2t-10 -2zM52 36q0 -4 8 -6q13 -3 25 5q21 15 25 51q-60 -36 -58 -50z" />
    <glyph glyph-name="me.liga" unicode="me" horiz-adv-x="357" 
d="M387 127q2 -8 -21 -35q-54 -64 -103 -67q-42 -2 -61 40q-10 -5 -19 -1q-13 6 -22 27.5t-12 43.5v4q-4 43 -8 44q-3 1 -5 -1q-8 -5 -13 -31v-4q-2 -7 -5 -26q-6 -40 -11 -52q-2 -4 -8 -10.5t-11 -6.5h-1q-4 1 -5 7q-4 20 -11 79q-1 14 -2 21q-1 5 -1 16q-2 26 -6 38
q-18 -35 -23 -90v-94q0 -6 -8.5 -15.5t-14.5 -9.5q-4 0 -5 6v4q-2 43 1 79q1 84 3 148q0 7 8 16t13 9h1q6 0 5 -10v-36q8 17 18 31q6 8 13 8q3 0 6 -2q12 -16 15 -53q0 -6 1 -10l1 -10l3 -36q12 60 37 74q10 6 17 2q14 -6 24 -65q8 -47 17 -55q-3 55 32 106q48 69 86 44
l2 -2q8 -6 4 -25t-19 -43q-3 -5 -12 -21q-38 -65 -57 -87q12 -19 33 -21h3q23 0 49 18.5t49 44.5q11 13 19 11q3 0 4 -2zM285 213q4 10 1 14q-2 2 -6 2t-10 -2q-16 -6 -29.5 -28t-18.5 -40q-7 -25 -4 -48q7 4 11 5q39 61 56 97z" />
    <glyph glyph-name="ne.liga" unicode="ne" horiz-adv-x="338" 
d="M372 127q2 -8 -21 -35q-54 -64 -103 -67q-35 -2 -54 28q-14 -16 -31 -16q-11 0 -19.5 6t-13.5 18.5t-7 20.5t-5 22q-1 5 -1 6q-2 10 -7 41q-8 62 -14 67q-8 9 -16 7q-10 -2 -16 -25q-7 -29 -8 -96q-1 -58 -6 -84q0 -5 -7.5 -13.5t-12.5 -8.5t-6 7q-17 99 -9 204
q0 6 6 13.5t12 10.5q4 2 7 0t2 -9q0 -9 -1 -20q16 54 47 57h2q11 0 20 -11.5t16 -34t10 -37.5t7 -39q2 -14 3 -18q1 -1 1 -3l1 -3q6 -28 13 -39q4 -7 8 -7q6 0 13 11q-2 8 -3 16q-6 58 32 114q48 69 86 44l2 -2q8 -6 4 -25t-19 -43q-3 -5 -12 -21q-38 -65 -57 -87
q13 -19 33 -21h3q23 0 49 18.5t49 44.5q11 13 19 11q3 0 4 -2zM270 213q5 10 1 14q-2 2 -6 2t-10 -2q-15 -6 -29 -28t-19 -40q-9 -32 -2 -59q3 5 9 16q39 61 56 97z" />
    <glyph glyph-name="ce.liga" unicode="ce" horiz-adv-x="429" 
d="M368 127q3 -8 -20 -35q-55 -64 -103 -67q-36 -2 -56 29l-2 -3l-18 -21q-1 -1 -4 -5q-5 -6 -8 -9t-8 -7.5t-10 -7.5t-11 -4q-4 -1 -8 -1q-12 0 -22 7q-26 19 -34 88q-10 79 21 131q25 43 55 48q16 3 30 -9q4 -6 2 -14t-8 -15q-4 -4 -7 -6q-5 -2 -8 1q-13 12 -25 7
q-15 -6 -24.5 -33t-10.5 -47q-2 -40 8 -77q10 -35 26 -42l12 -1.5t9.5 3.5t8 7l7.5 9q3 4 5 6q3 4 10 12q1 2 4 5q-3 10 -4 20q-6 58 33 114q47 69 85 44l2 -2q8 -6 4.5 -25t-18.5 -43q-4 -5 -13 -21q-38 -65 -57 -87q13 -19 33 -21h4q22 0 48.5 18.5t48.5 44.5q11 13 20 11
q2 0 3 -2zM267 213q4 10 0 14q-2 2 -6 2t-10 -2q-15 -6 -28.5 -28t-19.5 -40q-8 -30 -2 -57q1 1 3 5l3 3l3 6q39 61 57 97z" />
    <glyph glyph-name="tt.liga" unicode="tt" horiz-adv-x="233" 
d="M247 379q4 -3 5 -12q0 -15 -8 -19q-12 -8 -78 -49q-1 -19 -1 -31l-2 -34q-2 -58 -2 -78q2 -44 5 -77v-5q2 -23 6 -31q4 -7 7.5 -8t8.5 4.5t7 13.5q5 12 18 14q6 1 9 -4q4 -5 1 -13q-19 -48 -49 -48h-1h-2q-31 2 -35 64l-1 4q-3 38 1 146q1 19 1 34q0 8 1 31
q-17 -11 -74 -47q-2 -58 -2 -78q2 -44 5 -77v-5q2 -23 6 -31q4 -7 7.5 -8t8.5 4.5t7 13.5q5 12 18 14q6 1 9 -4q4 -5 1 -13q-19 -48 -49 -48h-1h-2q-31 2 -35 64l-1 4q-3 38 1 146q-33 -21 -49 -32q-5 -3 -8 -1q-4 2 -4 10q-1 16 7 21q21 14 55 36q2 62 7 173q2 32 2 41
q1 12 15 19q6 4 10.5 1t4.5 -10q-1 -15 -4 -76q-5 -86 -7 -130q3 2 13.5 8.5t28 18t31.5 20.5q2 42 5 108q1 28 2 40.5t15 19.5q6 4 10.5 1t4.5 -10q-1 -16 -4 -76q-2 -41 -4 -65q61 38 72 45q4 2 7 1z" />
    <glyph glyph-name="ee.liga" unicode="ee" horiz-adv-x="402" 
d="M434 141q7 -5 -38 -63q-12 -16 -26.5 -30.5t-42 -30.5t-53.5 -18h-5q-27 0 -45 16t-27 41q-51 -54 -103 -57h-5q-34 0 -54 24.5t-24 59.5q-7 69 39 136q56 82 101 52l3 -3q20 -30 -18 -80q-33 -43 -82 -82q-5 -3 -9 -1q-4 1 -5 9q-1 12 14 24h1q91 70 74 100q-13 8 -26 2
q-19 -7 -36 -33.5t-23 -48.5q-14 -48 2 -84q14 -33 42 -37q42 -7 103 50q-5 67 39 132q56 82 101 52h1q1 -1 2 -3q20 -30 -18 -80q-53 -71 -94 -103q2 -7 4 -11q14 -33 42 -37q29 -5 65.5 19.5t66.5 59.5q4 5 10.5 11t14 11t9.5 3zM283 240q-19 -7 -35.5 -33.5t-23 -48.5
t-6.5 -43q1 1 2 1q5 6 13 14q87 87 76 108q-12 8 -26 2z" />
    <glyph glyph-name="ees.liga" unicode="ees" horiz-adv-x="546" 
d="M569 156q2 -3 -1 -7t-7 -7.5t-8 -6.5q-11 -7 -36 -20q-16 -10 -26 -16q-2 -27 -16 -52t-35 -39q-19 -13 -36 -13q-13 0 -21 9q-9 13 -9 20t7 21q5 10 13 18.5t19.5 17t22.5 14.5t27 15q-6 19 -26 31q-5 -5 -11.5 -13t-12 -15t-13.5 -16.5t-15 -18.5q-14 -17 -27.5 -30.5
t-41.5 -30t-54 -18.5h-5q-26 0 -44.5 16t-26.5 41q-52 -54 -104 -57h-5q-33 0 -53.5 24.5t-23.5 59.5q-7 69 38 136q57 82 102 52q1 -2 2 -3q20 -30 -17 -80q-33 -43 -83 -81q-4 -4 -8 -2q-5 1 -5 9q-2 12 13 24h1q92 70 75 100q-13 8 -27 2q-19 -7 -35.5 -33.5t-22.5 -48.5
q-14 -48 1 -84q15 -33 42 -37q43 -7 104 50q-6 67 38 132q57 82 102 52q1 -1 2 -3q21 -30 -17 -80q-54 -71 -94 -103q2 -7 4 -11q12 -29 40 -41q39 -16 79.5 13.5t89.5 101.5q-6 2 -11 4q-34 13 -40 32q-6 17 8 38q14 22 42 32q7 4 18 6q22 2 37 -8.5t17 -24.5v-4t-1 -7
q-3 -9 -13 -20q-8 -10 -21 -27q23 -16 29 -44v-2q11 6 19 11q56 30 61 22zM207 115l1 1q5 6 14 14q86 87 76 108q-13 8 -27 2q-19 -7 -35.5 -33.5t-23 -48.5t-5.5 -43zM444 177l12 20l6 10q0 8 3 17q2 12 -11 15q-4 1 -11 1q-26 -1 -42 -20q-9 -10 0 -22q6 -9 31 -16
q8 -3 12 -5zM440 32q21 16 25 52q-61 -37 -58 -51q0 -4 8 -6q13 -3 25 5z" />
    <glyph glyph-name="est.liga" unicode="est" horiz-adv-x="471" 
d="M453 62q4 -5 1 -13q-19 -48 -49 -48h-2h-2q-30 2 -35 64v4q-1 19 -1 56q-13 -8 -18 -10q-16 -10 -27 -16q-1 -27 -15 -52t-36 -39q-19 -13 -35 -13q-13 0 -21 9q-9 13 -9 20t7 21q9 18 28.5 32.5t53.5 32.5q-6 19 -26 31q-49 -59 -53 -63q-62 -75 -122 -79h-5
q-37 0 -59 31q0 1 -1 2q-22 39 -17 88q1 4 1 5q0 4 1 8v1v1l1 2q9 43 35 82q56 82 101 52h1q1 -1 2 -3q20 -30 -17 -80q-54 -71 -95 -103q2 -6 4 -11q13 -29 41 -41q39 -16 79 13.5t89 101.5q-5 2 -11 4q-33 13 -40 32q-5 17 9 38q14 22 42 32q7 4 18 6q22 2 37 -8.5
t17 -24.5v-4t-2 -7q-2 -9 -12 -20q-8 -10 -22 -27q24 -16 30 -44v-2q10 6 19 11q16 8 27 14q0 30 1 67q1 21 1 34q3 61 8 171q1 27 2 43q0 12 14 19q7 4 11.5 1t4.5 -10q-1 -16 -4 -75q-5 -86 -7 -131q-1 -13 -2 -34q-2 -49 -2 -70q61 32 62 31q2 -4 0 -10.5t-7 -9.5
q-11 -7 -54 -33q1 -36 3 -63l1 -5q1 -23 6 -31q4 -7 7 -8t8 5t8 13q5 12 17 14q6 1 10 -4zM38 116q5 6 13 14q87 87 77 108q-13 8 -27 2q-19 -7 -35.5 -33.5t-23.5 -48.5q-6 -22 -6 -43zM273 177q5 8 11 17q4 6 7 13q1 7 3 17q3 12 -10 15q-5 1 -11 1q-26 -1 -42 -20
q-9 -10 0 -22q5 -9 31 -17q8 -2 11 -4zM269 32q22 16 26 52q-61 -37 -59 -51q1 -4 9 -6q13 -3 24 5z" />
    <glyph glyph-name="ke.liga" unicode="ke" horiz-adv-x="367" 
d="M396 137q3 -8 -20 -35q-55 -63 -104 -66h-4q-29 0 -48 24q-39 -52 -60 -45q-11 4 -19.5 13.5t-12 17.5l-10.5 24q-13 34 -25 44q-8 -10 -14 -18q-2 -4 -5 -6q4 -26 10 -49q1 -7 -6 -17.5t-14 -11.5h-1q-5 0 -6 6q-17 71 -25 160q-3 26 -4 45q-4 48 -7 113q-8 182 7 277
q5 29 9 47t16.5 45t29.5 42q20 16 43 11q32 -8 48 -43q9 -20 10.5 -44t-1.5 -42.5t-9 -44.5q-19 -74 -54 -174q-23 -68 -66 -179q5 -55 14 -110q33 66 63 135q5 13 17 15q4 0 7 -3q3 -4 -1 -14q-21 -50 -47 -102q17 -10 36 -51q10 -23 16 -31q1 -1 2 -4q9 -12 14 -14
q10 -4 33 31q-4 11 -5 23q-6 59 32 114q48 70 86 44q1 0 2 -2q8 -6 4 -24.5t-18 -42.5q-4 -6 -13 -21q-38 -65 -57 -87q13 -20 33 -21q2 -1 4 -1q22 0 48.5 18.5t48.5 44.5q11 13 20 12q2 -1 3 -3zM295 224q4 10 0 14t-16 0q-15 -7 -29 -28.5t-19 -39.5q-8 -30 -3 -56
q3 4 4 6q4 6 10 12q35 55 53 92zM141 553q7 21 9.5 32.5t6 29.5t2 33.5t-6.5 30.5q-8 21 -21 33q-10 8 -24 8q-15 0 -26 -10q-16 -13 -25 -77q-1 -8 -1 -11q-8 -49 -9 -118q-2 -121 4 -221q21 56 37 99q29 84 50 155q0 3 4 16z" />
    <glyph glyph-name="le.liga" unicode="le" horiz-adv-x="338" 
d="M377 139q3 -8 -20 -35q-54 -63 -103 -66q-30 -2 -50 21q-30 -47 -59 -47q-4 0 -8 1q-55 9 -81 129q0 4 -2 13q-2 11 -3 13l-1 4q-1 6 -2 10q-42 212 -16 403q14 102 48 142q21 23 47 21q29 -2 48 -32q12 -19 15 -47t1.5 -45t-5.5 -44q-13 -85 -45 -189q-14 -47 -46 -142
q-11 -32 -18 -52q3 -16 7 -32q13 -54 29 -81v-2q20 -33 34 -36q22 -4 45 34q-6 14 -7 29q-6 58 32 114q47 69 85 44l2 -2q9 -6 5 -25t-19 -43q-3 -6 -12 -21q-28 -47 -43 -69q-6 -7 -13 -20q12 -18 32 -19h3q15 0 33.5 9.5t34 23t29.5 30.5q11 13 20 11q2 0 3 -3zM276 226
q4 10 0 14q-1 2 -5.5 2t-10.5 -2q-15 -7 -28.5 -28.5t-18.5 -39.5q-9 -32 -3 -59q3 5 10 15q38 61 56 98zM155 544q5 24 7 38t3.5 36.5t-3 40t-14.5 31.5q-15 21 -33 23q-15 1 -28 -13q-7 -7 -15 -36q-1 -6 -1 -7q-11 -37 -16 -94q-9 -104 0 -212q4 -57 13 -109
q24 68 36 106q34 107 48 183q2 7 3 13z" />
    <glyph glyph-name="ff.liga" unicode="ff" horiz-adv-x="374" 
d="M383 148q4 -3 3 -11t-6 -14q-82 -89 -123 -149l1 -1q6 -30 24 -88q21 -72 28 -109q17 -90 -21 -124q-18 -15 -40 -15h-8q-41 5 -68 45q-40 58 -11 151q20 66 65 135q-8 36 -12 66q-6 47 -8 92q-6 -6 -12 -13q-59 -62 -96 -116q5 -23 19 -67v-2q17 -56 23 -86
q13 -71 -18 -99q-14 -12 -32 -12h-7q-33 4 -54 36q-32 47 -9 120q14 46 51 103q-6 27 -10 55q-24 178 28 299q13 31 32 57l1 2l1 2q19 27 33 30q10 2 17 -4q17 -16 5 -95v-1q-1 -6 -1 -8q-9 -81 -33 -157q-17 -52 -31 -79q-10 -21 -25 -26h-2q3 -21 7 -43q42 58 112 135
q-3 148 44 258q17 39 40 72q1 1 4 5q23 33 39 37q11 2 19 -4q14 -11 14 -50v-7q0 -1 -1 -6q1 -1 0 -2q0 -8 -1 -17q0 -5 -1 -11v-2q0 -1 -1 -2q-11 -82 -49 -158q-34 -66 -86 -122v-1q7 -71 24 -143q39 54 116 138q10 11 16 6zM234 -62q-94 -157 -30 -235q21 -25 46 -29
q20 -3 30 6q11 11 7 48q-4 35 -22 98q-20 67 -31 112zM224 207v-2v-3v-12v-1v-3q1 -7 1 -12q90 91 107 223q4 34 4 66q0 17 -6 20q-2 1 -4 1q-7 0 -17 -7q-5 -4 -12 -17q-2 -5 -3 -7q-15 -24 -25 -51q-27 -68 -36 -111q-2 -7 -3 -14q0 -1 -1 -4l-1 -4q0 -5 -1 -7v-6l-1 -3
v-5q-1 -4 -1 -9v-1q0 -3 -1 -5v-10v-5v-11zM108 333q-40 -102 -24 -245q4 7 9 8q5 2 16 37l1 3q1 4 2 5q9 25 16 49q14 50 22 101q7 48 7 90q0 12 -4 14q-1 1 -2 1q-4 0 -12 -6q-3 -2 -8 -12h-1q-1 -3 -3 -6q-11 -18 -19 -39zM119 -196q-3 28 -18 77q-16 54 -23 83
q-70 -119 -21 -178q16 -19 35 -22q15 -2 21 4q9 8 6 36z" />
    <glyph glyph-name="st.liga" unicode="st" horiz-adv-x="333" 
d="M319 212q2 -4 -9 -14.5t-19 -14.5q-11 -7 -77 -40q1 -37 3 -65v-5q2 -23 7 -32q4 -7 7 -7.5t8 5t8 12.5q5 12 17 14q6 1 10 -3q4 -5 0 -14q-19 -48 -49 -48h-1.5h-1.5q-31 3 -35 65v4q-2 20 -1 60q-30 -15 -47 -23q-2 -28 -16 -52.5t-35 -38.5q-37 -24 -56 -3
q-10 12 -9.5 19.5t7.5 21.5q14 30 82 65q-5 16 -17.5 25t-33.5 17q-34 13 -40 32q-5 17 9 38q7 10 16 19.5t20.5 16t21.5 8.5q17 2 31 -11q4 -4 2 -11q-4 -16 -15 -20q-4 -1 -6 1q-9 8 -22.5 6.5t-23.5 -10.5q-13 -11 -5 -24q6 -8 31 -16q9 -2 12 -4q38 -15 45 -52
q0 -1 1 -2q10 5 19 10q14 8 29 16q2 88 12 283q1 26 2 33q0 13 14 20q6 3 11 0t5 -9q-1 -16 -5 -72q-11 -191 -12 -241q100 51 106 41zM55 41q1 -4 8 -6q14 -3 25 5q21 15 26 51q-61 -36 -59 -50z" />
    <glyph glyph-name=".notdef" horiz-adv-x="527" 
d="M50 700h427v-700h-427v700zM78 680l185 -309l186 309h-371zM251 350l-180 300v-601zM264 329l-185 -308h370zM276 350l181 -303v605z" />
    <glyph glyph-name=".null" 
 />
    <glyph glyph-name=".null" 
 />
    <glyph glyph-name="nonmarkingreturn" horiz-adv-x="333" 
 />
    <glyph glyph-name="controlLF" unicode="&#xa;" 
 />
    <glyph glyph-name="controlCR" unicode="&#xd;" 
 />
    <glyph glyph-name="space" unicode=" " horiz-adv-x="147" 
 />
    <glyph glyph-name="exclam" unicode="!" horiz-adv-x="181" 
d="M110 819q1 15 21 30q17 14 17 -4v-2q-31 -368 -68 -738q-1 -15 -21 -30q-18 -14 -17 4v3q37 368 68 737zM68 23q10 3 12 1t2 -9q-1 -15 -16 -26q-5 -4 -6.5 -4.5t-6.5 -4.5l-7 -3q-6 -4 -10 -1t-4 9q1 15 16 26q10 7 20 12z" />
    <glyph glyph-name="quotedbl" unicode="&#x22;" horiz-adv-x="157" 
d="M76 496q4 -46 -49 -87q-13 -10 -23 -3q-8 5 5 15q33 24 31.5 62t-39.5 56q-9 4 11 14q20 9 27 3q19 -14 27.5 -27t9.5 -33zM135 515q4 -49 -50 -91q-13 -11 -23 -4q-7 6 6 16q33 25 31.5 65.5t-39.5 59.5q-10 4 10 14t28 4q18 -15 26.5 -28.5t10.5 -35.5z" />
    <glyph glyph-name="quotedbl" unicode="&#x201d;" horiz-adv-x="157" 
d="M76 496q4 -46 -49 -87q-13 -10 -23 -3q-8 5 5 15q33 24 31.5 62t-39.5 56q-9 4 11 14q20 9 27 3q19 -14 27.5 -27t9.5 -33zM135 515q4 -49 -50 -91q-13 -11 -23 -4q-7 6 6 16q33 25 31.5 65.5t-39.5 59.5q-10 4 10 14t28 4q18 -15 26.5 -28.5t10.5 -35.5z" />
    <glyph glyph-name="quotedbl" unicode="&#x201c;" horiz-adv-x="157" 
d="M76 496q4 -46 -49 -87q-13 -10 -23 -3q-8 5 5 15q33 24 31.5 62t-39.5 56q-9 4 11 14q20 9 27 3q19 -14 27.5 -27t9.5 -33zM135 515q4 -49 -50 -91q-13 -11 -23 -4q-7 6 6 16q33 25 31.5 65.5t-39.5 59.5q-10 4 10 14t28 4q18 -15 26.5 -28.5t10.5 -35.5z" />
    <glyph glyph-name="numbersign" unicode="#" horiz-adv-x="493" 
d="M428 111q15 1 32 -16q13 -14 -5 -14q-75 -2 -123 -2v-99q0 -17 -15 -28t-15 12q-1 68 0 115q-25 0 -64 1t-64 2q0 -40 1 -96q0 -15 -17 -32q-13 -13 -13 5q-2 76 -2 123h-99q-17 0 -28 15q-10 14 9 15h3q67 1 115 0q0 25 1 64t1 64q-39 0 -95 -1q-15 0 -32 17
q-13 13 5 13q75 2 123 2v99q0 17 15 28t15 -12q1 -68 0 -115q25 0 64 -1t64 -1q0 39 -1 95q0 15 16 32q14 13 14 -5q2 -75 2 -123h99q17 0 28 -15t-12 -15q-68 -1 -115 0q0 -25 -1 -64t-2 -64q40 0 96 1zM174 112q119 -2 128 -2q2 121 2 128q-120 3 -128 3q-3 -122 -2 -129z
" />
    <glyph glyph-name="dollar" unicode="$" horiz-adv-x="485" 
d="M306 221q30 -12 51 -21.5t45 -25.5t37.5 -33.5t21 -43.5t2.5 -57q-10 -63 -56 -107t-111 -62q-1 -57 -2 -81q0 -16 -19 -31t-19 7q1 46 2 98q-39 -5 -76.5 0.5t-70 21.5t-51.5 48t-17 75q1 15 20 30q17 14 18 -4v-3q-2 -43 24.5 -73t66.5 -41t87 -8q3 136 8 269
q-26 9 -39.5 14t-34 14.5t-35 19.5t-25.5 23q-18 21 -23.5 44.5t1.5 46.5t18.5 45t30 43.5t34.5 37.5t35 32q30 27 56 40q4 55 6 82q1 15 20 30q18 14 18 -4v-2q-3 -39 -6 -93q19 4 37 0q32 -7 49 -30.5t15 -55.5q-2 -15 -21 -30q-18 -14 -18 4q0 1 1 2q2 31 -17.5 45
t-48.5 14q-8 -145 -14 -280zM258 238q2 0 12 -4q5 133 13 259q-7 -2 -12 -5q-38 -20 -84 -75q-69 -81 -4 -135q25 -20 75 -40zM297 -85q63 13 101 51t27 91q-9 42 -39.5 66.5t-81.5 42.5q-5 -128 -7 -251z" />
    <glyph glyph-name="percent" unicode="%" horiz-adv-x="593" 
d="M451 607q-1 -3 -4 -7q-175 -384 -339 -756q-10 -23 -30 -28q-17 -5 -17 11q1 8 5 19q182 414 370 824q12 24 33 28q16 3 15 -13l-5 -17q-5 -10 -14 -30.5t-14 -30.5zM83 559q-8 -6 -12.5 -3t-1.5 17q7 24 22 47q7 34 22 53q13 18 29 19t27 -14q48 8 83 -44
q26 -41 24 -87.5t-23 -90t-54 -74.5q-14 -13 -30 -21t-35 -7.5t-33 14.5q-9 9 -14 22.5t-6.5 35.5t-2 32.5t1.5 37.5l2 27q1 29 1 36zM119 537q-1 -39 2 -74q1 -19 3.5 -29t12 -18t25.5 -7q28 0 48 27t24 59t0 59q-6 20 -26.5 44.5t-41.5 32.5q-8 -9 -14.5 -12t-9.5 3
q-2 5 -4 9q-6 -2 -11 -6q-1 -5 -2 -15.5t-1 -13.5q-4 -27 -5 -59zM508 149q26 -41 24 -87.5t-23 -90t-54 -74.5q-14 -13 -30 -21t-35 -7.5t-33 14.5q-9 9 -14.5 22.5t-6.5 35.5t-1.5 32.5t1.5 37.5l2 27q1 29 1 36q-8 -6 -12.5 -3t-1.5 16q7 25 22 48q7 34 22 53
q13 18 29 19t27 -14q48 8 83 -44zM418 -76q28 0 48 27t24 59t0 59q-4 13 -14 28.5t-25 29t-30 19.5q-7 -9 -13.5 -12t-9.5 3q-2 5 -5 9q-5 -2 -10 -7q-1 -4 -2 -15t-1 -13q-4 -27 -5 -59q-1 -39 2 -74q1 -19 3.5 -29t12 -18t25.5 -7z" />
    <glyph glyph-name="ampersand" unicode="&#x26;" horiz-adv-x="465" 
d="M447 -88q16 -1 5 -27q-12 -23 -26 -24q-50 2 -107 90q-40 -34 -77 -54q-22 -11 -44.5 -19.5t-47.5 -13.5t-50 -1.5t-46 15.5q-14 8 -22.5 18.5t-9.5 23.5t-0.5 23.5t7 26.5t11 25l12.5 25q11 20 26.5 45t26.5 41.5t31.5 47t28.5 43.5q-22 40 -40 76q-24 49 -40 96.5
t-25 103.5t4.5 107t51.5 89q30 30 72 39.5t81 -10.5q22 -12 36 -36.5t18 -51t5 -55.5t-3 -52q-7 -72 -36.5 -139.5t-76.5 -143.5q35 -60 99 -160q5 -6 15 -24t13 -23q15 15 27 30q69 89 -16 146q-7 7 -3.5 20t14.5 23t18 5q37 -24 50.5 -56.5t5 -66t-28.5 -65.5t-50 -63
q49 -73 91 -74zM169 299q12 -24 28 -53q48 78 73 148.5t19 144.5q-7 95 -61 117q-45 18 -84.5 -11t-45.5 -76q-14 -107 71 -270zM253 -54q25 14 48 33q-5 8 -8 13q-76 116 -113 179q-58 -88 -75 -117q-2 -3 -14 -21.5t-19 -31t-9 -23.5q-5 -29 7.5 -42t39.5 -19
q63 -15 143 29z" />
    <glyph glyph-name="quotesingle" unicode="'" horiz-adv-x="148" 
d="M124 304q-2 -46 -59 -80q-16 -9 -24 0q-3 6 7 14q36 20 39 57.5t-33 60.5q-8 5 11 12q21 7 29 0q17 -16 24 -30t6 -34z" />
    <glyph glyph-name="quotesingle" unicode="&#x2019;" horiz-adv-x="148" 
d="M124 304q-2 -46 -59 -80q-16 -9 -24 0q-3 6 7 14q36 20 39 57.5t-33 60.5q-8 5 11 12q21 7 29 0q17 -16 24 -30t6 -34z" />
    <glyph glyph-name="quotesingle" unicode="&#x2018;" horiz-adv-x="148" 
d="M124 304q-2 -46 -59 -80q-16 -9 -24 0q-3 6 7 14q36 20 39 57.5t-33 60.5q-8 5 11 12q21 7 29 0q17 -16 24 -30t6 -34z" />
    <glyph glyph-name="comma" unicode="," horiz-adv-x="102" 
d="M86 7q-2 -46 -60 -80q-15 -9 -23 0q-4 7 7 14q36 20 39 57.5t-33 60.5q-8 5 11 12q22 8 29 0q17 -16 23.5 -30t6.5 -34z" />
    <glyph glyph-name="period" unicode="." horiz-adv-x="102" 
d="M40 -24q-6 -4 -10 -1.5t-3 9.5q0 15 15 26q10 7 21 12q10 3 11.5 1t1.5 -9q-1 -15 -16 -26q-5 -4 -6.5 -4.5t-6.5 -5.5z" />
    <glyph glyph-name="zero" unicode="0" horiz-adv-x="471" 
d="M443 483q26 -102 22 -221t-42 -217q-11 -29 -26.5 -58t-36 -58.5t-46 -52t-53.5 -36.5t-60.5 -14t-65.5 17q-84 43 -111 179q-23 118 -17 266q5 131 37 258q0 2 3.5 17.5t6 23.5l7.5 24t10.5 24.5t13 18t17 13t21.5 0.5q16 -5 3 -30q-12 -23 -25 -21q-12 3 -30 -96.5
t-21 -139.5q-12 -126 1 -249q5 -48 10.5 -77.5t22 -69t42.5 -64.5q53 -48 109 -39.5t100 64.5q116 145 84 422q-4 29 -7.5 50t-10 47.5t-17 49.5t-24.5 42q-21 27 -54.5 45t-72 17.5t-62.5 -28.5q-17 -20 -23 -6q-8 16 7 33q31 36 74 46.5t88 -6.5q94 -34 126 -174z" />
    <glyph glyph-name="one" unicode="1" horiz-adv-x="220" 
d="M167 650q-22 -394 4 -782q1 -15 -19 -34q-17 -17 -19 -1q-25 383 -5 768q-32 -29 -67 -102q-9 -19 -26 -21q-10 -1 -9 9q0 6 4 14q27 57 53.5 95t66.5 65q7 5 12.5 1.5t4.5 -12.5z" />
    <glyph glyph-name="two" unicode="2" horiz-adv-x="511" 
d="M472 -116q15 1 5 -23q-11 -25 -26 -27q-186 -7 -250 -7q-6 0 -27.5 -0.5t-35.5 0t-33 2.5t-33.5 7.5t-24.5 14.5q-6 9 -3 19t10 18q6 7 17 20q63 71 97 111.5t85 105.5t86.5 126.5t62.5 124.5q12 29 19 61.5t5.5 65t-12.5 56t-38.5 34.5t-69.5 2q-64 -15 -128 -59
q-32 -22 -59 -49q-28 -23 -31 -60q15 -23 33 -11q15 10 14 -6q-1 -22 -15 -36l-2 -2q-29 -19 -52 -0.5t-18 50.5q9 61 101 135q22 18 50.5 36t66 34.5t71 22.5t65 -4.5t49.5 -40.5q15 -27 19.5 -59t-2.5 -67t-16 -64.5t-28 -67t-31 -58t-31 -53.5q-51 -85 -114.5 -165
t-153.5 -183q13 -6 34.5 -9t37.5 -3t40 1t31 1q60 0 235 6z" />
    <glyph glyph-name="three" unicode="3" horiz-adv-x="585" 
d="M565 274q26 -92 0.5 -186.5t-89.5 -164.5q-62 -68 -146 -88.5t-170 13.5q-30 12 -63 39t-57.5 62t-25.5 71t33 66q20 16 20 -4q1 -21 -13 -33t18 -55t49 -57q44 -38 103 -53q65 -16 128.5 2t109.5 67q52 55 70.5 133.5t-4.5 150.5q-26 79 -89 94q-31 8 -65 -2
q-48 -42 -107 -70q-13 -7 -11 10q4 22 14 33q56 55 109 74q51 49 76 112q11 27 12 50.5t-13 42t-45 21.5q-58 6 -112 -37q5 -10 -6 -29t-23 -18q-50 6 10 69q24 26 40 36q29 17 64.5 26.5t71.5 -0.5t47 -46q25 -76 -59 -197q-5 -9 -14 -20h19q43 -5 73 -36t45 -76z" />
    <glyph glyph-name="four" unicode="4" horiz-adv-x="536" 
d="M517 255q13 4 12 -11q-2 -22 -18 -35l-6 -3q-16 -4 -48.5 -12.5t-48.5 -12.5q-14 -214 -21 -319q-1 -15 -21 -30q-17 -14 -17 4v3q7 107 22 332q-99 -25 -132 -34q-11 -2 -38.5 -10.5t-44.5 -13t-41 -7.5t-44 1t-37 16q-13 8 2 31q42 69 148 252t169 280q9 13 19 15
t12 -7t-6 -23q-62 -95 -166 -274.5t-136 -232.5q14 -6 33 -7.5t36.5 1t38.5 7.5t38 10.5t37 12t32 9.5q11 3 26.5 7t30 7.5t26.5 6.5q4 64 9 146q-11 -1 -8 18q1 8 2.5 16.5t3 16t3 16t3 16t2.5 16t3 16.5q2 14 21 26q17 12 16 -8q-7 -99 -18 -269q18 4 53.5 13.5t52.5 13.5
z" />
    <glyph glyph-name="five" unicode="5" horiz-adv-x="695" 
d="M676 707q13 3 12 -10q0 -21 -17 -35l-7 -4q-64 -14 -186 -34t-177 -31l-74 -243q31 28 61.5 49.5t67.5 36.5t70 16.5t67 -15.5t62 -54q41 -57 53.5 -128t-3.5 -138.5t-51.5 -127.5t-93 -102.5t-125.5 -55.5q-85 -16 -164 14.5t-123 101.5q-41 67 -42 145t38 145
q5 9 10.5 13t10 3t7.5 -4.5t2 -10.5t-5 -16q-42 -77 -16.5 -165.5t98.5 -137.5t164.5 -42.5t158.5 61.5q52 41 77.5 106t22 133.5t-32.5 127.5q-23 47 -62 74t-88 23q-29 -2 -55.5 -13t-53 -32.5t-42 -36t-42.5 -42.5q-9 -10 -17 -5t-4 17q14 46 41.5 138t41.5 138
q-1 10 0 19q-95 -21 -169 -47q-12 -4 -11 9q1 21 17 36l6 4q76 27 172 47q7 13 17 24q9 11 20 9.5t6 -17.5q-1 -4 -2 -7q54 11 175.5 31t184.5 33z" />
    <glyph glyph-name="six" unicode="6" horiz-adv-x="502" 
d="M368 285q62 2 98.5 -39t28.5 -103q-13 -91 -106 -187q-26 -26 -63.5 -52.5t-85 -48t-90.5 -28t-80.5 13.5t-54.5 70q-4 12 -6.5 25t-2.5 27.5v25.5t3 27.5t4.5 25.5t7 27.5t7 25t8 26.5t7.5 24q47 155 102 267q64 134 146 231q1 1 9 11t11 13l11 11t13.5 11.5t13 6.5
t14.5 3q18 0 26.5 -11t7.5 -28q0 -16 -20 -31q-17 -14 -18 4v3q1 31 -65 -38q-8 -8 -9 -10q-20 -25 -37 -52q-30 -45 -57 -97q-45 -85 -83 -195q-2 -6 -7 -18q-12 -33 -18.5 -53.5t-18 -59.5t-14.5 -67t-3 -59.5t11 -54.5t32 -37q-9 116 81 257q36 57 87 94.5t110 38.5z
M357 -30q16 14 30.5 29.5t29.5 35t25 40t15 41.5t1 42.5t-18 39.5q-22 28 -55 35.5t-65 -2.5t-61 -29.5t-48 -42.5q-41 -53 -65.5 -120t-16.5 -125q2 -12 -13 -30q18 -5 39 -6q97 -1 202 92z" />
    <glyph glyph-name="seven" unicode="7" horiz-adv-x="630" 
d="M615 679q17 1 3 -28q-11 -18 -20 -22q-3 0 -8.5 -1.5t-6.5 -1.5q-8 -4 -20.5 -12t-21 -15t-21.5 -18t-16 -13q-86 -70 -160 -156q-227 -266 -220 -550q1 -15 -18 -30.5t-20 7.5q-4 159 61.5 312.5t180.5 287.5q83 97 176 171q-247 -42 -490 12q-9 4 -8 16t11 24t19 10
q281 -62 560 3q10 4 19 4z" />
    <glyph glyph-name="eight" unicode="8" horiz-adv-x="433" 
d="M329 196q115 -59 95 -154q-18 -86 -122 -161q-112 -79 -207 -45q-50 18 -73 60.5t-14 96.5q6 37 24.5 81.5t34.5 73.5t44 75q-18 10 -32 20q-26 21 -37 49t-7 58t15 61t30 61t37.5 54t37.5 44q99 104 176 109q43 4 61.5 -28t14.5 -77q-3 -37 -11 -76.5t-21 -93t-18 -75.5
q-14 -61 -30 -132q1 -1 1.5 -1h0.5zM86 315q15 -25 56 -45q49 62 105 57q16 -2 5 -27q-12 -25 -26 -24q-30 3 -54 -19q6 -2 17.5 -6t15.5 -6q91 -34 92 -34q20 91 39 178q3 15 12.5 52t15 64t6.5 52q2 50 -28 67q-9 5 -21.5 5.5t-23 -2.5t-24.5 -10t-21 -11.5t-19 -12.5
q-23 -16 -48.5 -38.5t-50.5 -52.5t-40.5 -61.5t-20 -64t12.5 -61.5zM283 -89q116 71 102 148q-8 46 -71 81q-14 -65 -21 -96q-4 -17 -23 -27q-14 -7 -15 7q0 3 2 8q8 39 27 123q-23 10 -73.5 27.5t-74.5 27.5q-4 -6 -8 -14t-8.5 -16.5t-7.5 -13.5q-3 -6 -13.5 -25t-15.5 -29
t-13.5 -28t-13 -30.5t-8.5 -28.5t-5 -30q-2 -40 22.5 -70t63.5 -42q71 -22 154 28z" />
    <glyph glyph-name="nine" unicode="9" horiz-adv-x="472" 
d="M428 674q3 14 22 26q16 11 15 -5v-3q-66 -478 -101 -829q-1 -15 -21 -31q-17 -14 -17 4v3q29 288 76 647q-39 -98 -92 -174q-13 -18 -30.5 -39t-43 -48t-53 -47.5t-55 -34t-54.5 -11t-47 24.5q-12 14 -17.5 32.5t-3.5 41t5.5 38t9.5 37.5q28 99 87 185q14 21 29 40.5
t35.5 41.5t41 40t45 33.5t48 23.5t50 7.5t51.5 -11.5q14 -6 -1 -31q-14 -22 -28 -18q-20 9 -40.5 10t-40 -5t-38 -16.5t-36.5 -25.5t-33.5 -31t-30 -35t-26 -35t-20.5 -32q-44 -71 -61 -146q-9 -37 -2.5 -67.5t30.5 -42.5t67 9q48 25 89.5 67t70 87.5t53 104.5t39 108
t28.5 107z" />
    <glyph glyph-name="question" unicode="?" horiz-adv-x="560" 
d="M431 853q36 -13 52 -46t16 -75q-1 -39 -14 -76t-39.5 -74.5t-46 -60.5t-54.5 -60q-18 -19 -59 -58.5t-67.5 -67.5t-56.5 -67t-44 -80t-12 -83q0 -16 -21 -35q-15 -11 -17 1q-2 55 15 107.5t53 100.5t69.5 84.5t83 85t74.5 76.5q65 74 84 118q11 25 14 53.5t-6.5 56.5
t-32.5 43q-23 14 -61 13t-77.5 -15t-79 -37t-65 -51.5t-35 -59.5t10.5 -61q8 -13 -11 -36q-16 -17 -24 -7q-22 33 -18.5 67.5t21.5 66t47.5 60.5t59.5 50t58 34q115 56 183 33zM104 37q10 3 12 1t2 -9q-1 -15 -16 -26q-6 -4 -7 -4.5t-6 -5.5l-7 -2q-6 -4 -10 -1.5t-4 9.5
q1 15 16 26q10 7 20 12z" />
    <glyph glyph-name="at" unicode="@" horiz-adv-x="487" 
d="M411 56q16 10 15 -6q-1 -22 -15 -36l-3 -2q-34 -23 -75.5 -40.5t-87 -25.5t-84 -1.5t-66 38t-32.5 86.5q-5 47 4.5 103t30 109t54.5 99.5t75 71.5q44 27 89 14t69 -59q42 -81 5 -198q-6 -18 -13.5 -36.5t-20.5 -43.5t-29.5 -41t-32.5 -16q-41 0 -38 87q-31 -65 -64 -104
q-9 -10 -20.5 -17.5t-23 -11t-20.5 3t-11 24.5q-2 26 26.5 99t71 127.5t72.5 27.5q6 -7 3 -20q15 9 14 -10q-4 -54 -5 -85q-2 -24 -1 -49q38 -11 45 27q36 75 21 151q-8 40 -32.5 69.5t-61.5 29.5q-17 1 -33.5 -6.5t-29 -18.5t-24.5 -28t-19.5 -29.5t-16.5 -30.5
q-16 -32 -28.5 -69.5t-19.5 -81t3.5 -82.5t40.5 -62q28 -22 64.5 -26t74 7.5t68.5 26.5t61 35zM176 103q8 1 16.5 7.5t16.5 18t14.5 22.5t13 28t11 28t10.5 28t8 23q-5 -2 -8 1q-8 7 -20 -2t-23.5 -28t-19 -32.5t-11.5 -21.5q-11 -24 -19 -50q-1 -4 -3 -10t-2.5 -7t0 -4
t5 -1.5t11.5 0.5z" />
    <glyph glyph-name="A" unicode="A" horiz-adv-x="638" 
d="M624 286q14 1 4 -23q-11 -25 -26 -27q-37 -2 -76 -4q42 -178 78 -363q3 -15 -17 -34q-17 -15 -21 0q-38 197 -83 384q0 1 -1 4.5t-2 5.5q-152 -9 -304 -25q-15 -104 -37 -311q-2 -15 -21 -30q-18 -14 -18 4q0 1 1 3q23 217 40 331q-68 -8 -127 -15q-14 -2 -4 22
q10 27 25 28q50 7 114 14q10 59 21 110q27 126 64 201q12 23 18.5 35t20 32t29 31.5t33.5 14.5q65 13 98 -86q17 -55 63 -235q2 -7 18 -72q60 3 110 5zM184 254q141 14 284 24q-18 74 -33 131q-4 13 -13 54.5t-18 70t-21 50.5q-19 33 -33 36l-65 -27q-9 -14 -16 -29
q-22 -40 -38 -92q-20 -68 -41 -182z" />
    <glyph glyph-name="A" unicode="&#xc5;" horiz-adv-x="638" 
d="M624 286q14 1 4 -23q-11 -25 -26 -27q-37 -2 -76 -4q42 -178 78 -363q3 -15 -17 -34q-17 -15 -21 0q-38 197 -83 384q0 1 -1 4.5t-2 5.5q-152 -9 -304 -25q-15 -104 -37 -311q-2 -15 -21 -30q-18 -14 -18 4q0 1 1 3q23 217 40 331q-68 -8 -127 -15q-14 -2 -4 22
q10 27 25 28q50 7 114 14q10 59 21 110q27 126 64 201q12 23 18.5 35t20 32t29 31.5t33.5 14.5q65 13 98 -86q17 -55 63 -235q2 -7 18 -72q60 3 110 5zM184 254q141 14 284 24q-18 74 -33 131q-4 13 -13 54.5t-18 70t-21 50.5q-19 33 -33 36l-65 -27q-9 -14 -16 -29
q-22 -40 -38 -92q-20 -68 -41 -182z" />
    <glyph glyph-name="A" unicode="&#xc4;" horiz-adv-x="638" 
d="M624 286q14 1 4 -23q-11 -25 -26 -27q-37 -2 -76 -4q42 -178 78 -363q3 -15 -17 -34q-17 -15 -21 0q-38 197 -83 384q0 1 -1 4.5t-2 5.5q-152 -9 -304 -25q-15 -104 -37 -311q-2 -15 -21 -30q-18 -14 -18 4q0 1 1 3q23 217 40 331q-68 -8 -127 -15q-14 -2 -4 22
q10 27 25 28q50 7 114 14q10 59 21 110q27 126 64 201q12 23 18.5 35t20 32t29 31.5t33.5 14.5q65 13 98 -86q17 -55 63 -235q2 -7 18 -72q60 3 110 5zM184 254q141 14 284 24q-18 74 -33 131q-4 13 -13 54.5t-18 70t-21 50.5q-19 33 -33 36l-65 -27q-9 -14 -16 -29
q-22 -40 -38 -92q-20 -68 -41 -182z" />
    <glyph glyph-name="A" unicode="&#xc3;" horiz-adv-x="638" 
d="M624 286q14 1 4 -23q-11 -25 -26 -27q-37 -2 -76 -4q42 -178 78 -363q3 -15 -17 -34q-17 -15 -21 0q-38 197 -83 384q0 1 -1 4.5t-2 5.5q-152 -9 -304 -25q-15 -104 -37 -311q-2 -15 -21 -30q-18 -14 -18 4q0 1 1 3q23 217 40 331q-68 -8 -127 -15q-14 -2 -4 22
q10 27 25 28q50 7 114 14q10 59 21 110q27 126 64 201q12 23 18.5 35t20 32t29 31.5t33.5 14.5q65 13 98 -86q17 -55 63 -235q2 -7 18 -72q60 3 110 5zM184 254q141 14 284 24q-18 74 -33 131q-4 13 -13 54.5t-18 70t-21 50.5q-19 33 -33 36l-65 -27q-9 -14 -16 -29
q-22 -40 -38 -92q-20 -68 -41 -182z" />
    <glyph glyph-name="A" unicode="&#xc2;" horiz-adv-x="638" 
d="M624 286q14 1 4 -23q-11 -25 -26 -27q-37 -2 -76 -4q42 -178 78 -363q3 -15 -17 -34q-17 -15 -21 0q-38 197 -83 384q0 1 -1 4.5t-2 5.5q-152 -9 -304 -25q-15 -104 -37 -311q-2 -15 -21 -30q-18 -14 -18 4q0 1 1 3q23 217 40 331q-68 -8 -127 -15q-14 -2 -4 22
q10 27 25 28q50 7 114 14q10 59 21 110q27 126 64 201q12 23 18.5 35t20 32t29 31.5t33.5 14.5q65 13 98 -86q17 -55 63 -235q2 -7 18 -72q60 3 110 5zM184 254q141 14 284 24q-18 74 -33 131q-4 13 -13 54.5t-18 70t-21 50.5q-19 33 -33 36l-65 -27q-9 -14 -16 -29
q-22 -40 -38 -92q-20 -68 -41 -182z" />
    <glyph glyph-name="A" unicode="&#xc1;" horiz-adv-x="638" 
d="M624 286q14 1 4 -23q-11 -25 -26 -27q-37 -2 -76 -4q42 -178 78 -363q3 -15 -17 -34q-17 -15 -21 0q-38 197 -83 384q0 1 -1 4.5t-2 5.5q-152 -9 -304 -25q-15 -104 -37 -311q-2 -15 -21 -30q-18 -14 -18 4q0 1 1 3q23 217 40 331q-68 -8 -127 -15q-14 -2 -4 22
q10 27 25 28q50 7 114 14q10 59 21 110q27 126 64 201q12 23 18.5 35t20 32t29 31.5t33.5 14.5q65 13 98 -86q17 -55 63 -235q2 -7 18 -72q60 3 110 5zM184 254q141 14 284 24q-18 74 -33 131q-4 13 -13 54.5t-18 70t-21 50.5q-19 33 -33 36l-65 -27q-9 -14 -16 -29
q-22 -40 -38 -92q-20 -68 -41 -182z" />
    <glyph glyph-name="A" unicode="&#xc0;" horiz-adv-x="638" 
d="M624 286q14 1 4 -23q-11 -25 -26 -27q-37 -2 -76 -4q42 -178 78 -363q3 -15 -17 -34q-17 -15 -21 0q-38 197 -83 384q0 1 -1 4.5t-2 5.5q-152 -9 -304 -25q-15 -104 -37 -311q-2 -15 -21 -30q-18 -14 -18 4q0 1 1 3q23 217 40 331q-68 -8 -127 -15q-14 -2 -4 22
q10 27 25 28q50 7 114 14q10 59 21 110q27 126 64 201q12 23 18.5 35t20 32t29 31.5t33.5 14.5q65 13 98 -86q17 -55 63 -235q2 -7 18 -72q60 3 110 5zM184 254q141 14 284 24q-18 74 -33 131q-4 13 -13 54.5t-18 70t-21 50.5q-19 33 -33 36l-65 -27q-9 -14 -16 -29
q-22 -40 -38 -92q-20 -68 -41 -182z" />
    <glyph glyph-name="B" unicode="B" horiz-adv-x="659" 
d="M501 410q43 -17 67 -55t27 -84.5t-5 -92t-25 -84.5q-37 -84 -107.5 -152.5t-154.5 -100.5q-62 -20 -119.5 -11.5t-106 47t-70.5 97.5q-6 16 15 38q16 16 20 5q25 -66 84 -106.5t128 -34.5q75 6 146.5 59.5t113.5 124.5q21 33 32.5 75.5t12.5 86.5t-19.5 81.5t-60.5 55.5
q-30 13 -63 13q-28 -72 -81 -106.5t-119 -0.5q-2 -51 -4 -152.5t-3 -151.5q0 -15 -19.5 -30.5t-18.5 6.5q1 50 3 149t3 148q-5 3 -5 14t6 20q5 235 8 352q0 15 19 30.5t19 -6.5v-3v-3q48 45 109 24q25 -9 44.5 -27.5t30.5 -43.5t17.5 -50t8.5 -52q3 -31 -4 -66q37 1 71 -13z
M223 592v-1q-1 -35 -2.5 -88.5t-2.5 -101.5t-1 -88q87 89 181 106q1 31 -5 68q-14 72 -53 106q-12 10 -28 16.5t-32.5 8.5t-32.5 -4.5t-24 -21.5zM379 350q5 9 9 20q-64 -10 -129 -62q32 -12 66.5 -0.5t53.5 42.5z" />
    <glyph glyph-name="C" unicode="C" horiz-adv-x="492" 
d="M449 97q5 17 24 27q14 7 13 -6q0 -4 -1 -9q-10 -32 -16.5 -52t-20.5 -55.5t-26.5 -58.5t-32 -49.5t-40.5 -41t-49 -22t-58 -1.5q-71 13 -124.5 66t-79.5 120t-31 139q-6 112 25 223.5t96 197.5q78 103 148 100q40 -2 62 -33t10 -69q-5 -17 -24 -27q-14 -7 -13 6q0 4 1 9
q3 9 2 17t-5 15t-10.5 13t-13.5 10t-15 6t-16 3q-41 1 -87 -49q-50 -55 -83 -139q-29 -77 -37 -158.5t7 -162.5q16 -74 59.5 -134t108.5 -89q105 -47 159 46q40 68 68 158z" />
    <glyph glyph-name="C" unicode="&#xc7;" horiz-adv-x="492" 
d="M449 97q5 17 24 27q14 7 13 -6q0 -4 -1 -9q-10 -32 -16.5 -52t-20.5 -55.5t-26.5 -58.5t-32 -49.5t-40.5 -41t-49 -22t-58 -1.5q-71 13 -124.5 66t-79.5 120t-31 139q-6 112 25 223.5t96 197.5q78 103 148 100q40 -2 62 -33t10 -69q-5 -17 -24 -27q-14 -7 -13 6q0 4 1 9
q3 9 2 17t-5 15t-10.5 13t-13.5 10t-15 6t-16 3q-41 1 -87 -49q-50 -55 -83 -139q-29 -77 -37 -158.5t7 -162.5q16 -74 59.5 -134t108.5 -89q105 -47 159 46q40 68 68 158z" />
    <glyph glyph-name="D" unicode="D" horiz-adv-x="683" 
d="M484 601q77 -89 114 -218t18 -244q-19 -107 -85.5 -192t-166.5 -112q-67 -19 -134 0q-6 -2 -8 3q-43 13 -77 39.5t-56.5 66.5t-27.5 87q-2 15 18 34q18 16 19 0q6 -55 38.5 -99t81.5 -68q-19 366 -13 726q1 15 20 30.5t18 -7.5v-3v-3q24 22 56 31q35 10 69.5 1.5t63 -27
t52.5 -45.5zM571 86q45 163 -55 366q-50 101 -103 139q-37 27 -76 33q-17 1 -37.5 0.5t-38 -12t-18.5 -30.5q-4 -352 15 -699q27 -7 53 -7q62 -1 116 27.5t90.5 76t53.5 106.5z" />
    <glyph glyph-name="E" unicode="E" horiz-adv-x="627" 
d="M538 31q17 23 58 21q26 -2 25 -13q-1 -2 -2 -5q-23 -30 -60 -65t-86 -69t-98 -55t-98 -18t-83 37q-27 28 -44 68.5t-22.5 82t-7.5 86.5t0 81q1 16 2 38q-1 0 -3 -0.5t-3 -0.5q-14 -1 -4 24q5 12 13 19q1 24 7 89.5t9 111.5t2 89q-2 0 -4.5 -0.5t-4.5 -0.5t-4 -1
q-8 -1 -27.5 -5t-34 -7t-31.5 -2.5t-27 5.5q-5 3 -5 12q0 1 0.5 3t0.5 3q1 11 8.5 23t16.5 14q2 0 5 1q12 2 12 -11q16 7 93 18q-1 1 -1 5v7q-2 15 18 34q17 13 19 0q2 -19 3 -41q25 4 57 7.5t51.5 6t23.5 3.5q128 21 267 51q13 3 12 -12q-2 -22 -18 -34l-7 -3
q-158 -34 -308 -58q-34 -6 -77 -12q0 -30 -2 -66t-4 -59t-6 -68.5t-5 -61.5q-1 -15 -2 -31q160 15 313 61q12 4 12 -9q-1 -21 -17 -36l-7 -4q-149 -45 -305 -61q-2 -48 -2.5 -91.5t9 -90.5t29.5 -83q24 -42 51.5 -65t53 -28.5t54.5 4t52.5 25t50 41.5t44 47.5t38.5 48.5z
" />
    <glyph glyph-name="E" unicode="&#xcb;" horiz-adv-x="627" 
d="M538 31q17 23 58 21q26 -2 25 -13q-1 -2 -2 -5q-23 -30 -60 -65t-86 -69t-98 -55t-98 -18t-83 37q-27 28 -44 68.5t-22.5 82t-7.5 86.5t0 81q1 16 2 38q-1 0 -3 -0.5t-3 -0.5q-14 -1 -4 24q5 12 13 19q1 24 7 89.5t9 111.5t2 89q-2 0 -4.5 -0.5t-4.5 -0.5t-4 -1
q-8 -1 -27.5 -5t-34 -7t-31.5 -2.5t-27 5.5q-5 3 -5 12q0 1 0.5 3t0.5 3q1 11 8.5 23t16.5 14q2 0 5 1q12 2 12 -11q16 7 93 18q-1 1 -1 5v7q-2 15 18 34q17 13 19 0q2 -19 3 -41q25 4 57 7.5t51.5 6t23.5 3.5q128 21 267 51q13 3 12 -12q-2 -22 -18 -34l-7 -3
q-158 -34 -308 -58q-34 -6 -77 -12q0 -30 -2 -66t-4 -59t-6 -68.5t-5 -61.5q-1 -15 -2 -31q160 15 313 61q12 4 12 -9q-1 -21 -17 -36l-7 -4q-149 -45 -305 -61q-2 -48 -2.5 -91.5t9 -90.5t29.5 -83q24 -42 51.5 -65t53 -28.5t54.5 4t52.5 25t50 41.5t44 47.5t38.5 48.5z
" />
    <glyph glyph-name="E" unicode="&#xca;" horiz-adv-x="627" 
d="M538 31q17 23 58 21q26 -2 25 -13q-1 -2 -2 -5q-23 -30 -60 -65t-86 -69t-98 -55t-98 -18t-83 37q-27 28 -44 68.5t-22.5 82t-7.5 86.5t0 81q1 16 2 38q-1 0 -3 -0.5t-3 -0.5q-14 -1 -4 24q5 12 13 19q1 24 7 89.5t9 111.5t2 89q-2 0 -4.5 -0.5t-4.5 -0.5t-4 -1
q-8 -1 -27.5 -5t-34 -7t-31.5 -2.5t-27 5.5q-5 3 -5 12q0 1 0.5 3t0.5 3q1 11 8.5 23t16.5 14q2 0 5 1q12 2 12 -11q16 7 93 18q-1 1 -1 5v7q-2 15 18 34q17 13 19 0q2 -19 3 -41q25 4 57 7.5t51.5 6t23.5 3.5q128 21 267 51q13 3 12 -12q-2 -22 -18 -34l-7 -3
q-158 -34 -308 -58q-34 -6 -77 -12q0 -30 -2 -66t-4 -59t-6 -68.5t-5 -61.5q-1 -15 -2 -31q160 15 313 61q12 4 12 -9q-1 -21 -17 -36l-7 -4q-149 -45 -305 -61q-2 -48 -2.5 -91.5t9 -90.5t29.5 -83q24 -42 51.5 -65t53 -28.5t54.5 4t52.5 25t50 41.5t44 47.5t38.5 48.5z
" />
    <glyph glyph-name="E" unicode="&#xc9;" horiz-adv-x="627" 
d="M538 31q17 23 58 21q26 -2 25 -13q-1 -2 -2 -5q-23 -30 -60 -65t-86 -69t-98 -55t-98 -18t-83 37q-27 28 -44 68.5t-22.5 82t-7.5 86.5t0 81q1 16 2 38q-1 0 -3 -0.5t-3 -0.5q-14 -1 -4 24q5 12 13 19q1 24 7 89.5t9 111.5t2 89q-2 0 -4.5 -0.5t-4.5 -0.5t-4 -1
q-8 -1 -27.5 -5t-34 -7t-31.5 -2.5t-27 5.5q-5 3 -5 12q0 1 0.5 3t0.5 3q1 11 8.5 23t16.5 14q2 0 5 1q12 2 12 -11q16 7 93 18q-1 1 -1 5v7q-2 15 18 34q17 13 19 0q2 -19 3 -41q25 4 57 7.5t51.5 6t23.5 3.5q128 21 267 51q13 3 12 -12q-2 -22 -18 -34l-7 -3
q-158 -34 -308 -58q-34 -6 -77 -12q0 -30 -2 -66t-4 -59t-6 -68.5t-5 -61.5q-1 -15 -2 -31q160 15 313 61q12 4 12 -9q-1 -21 -17 -36l-7 -4q-149 -45 -305 -61q-2 -48 -2.5 -91.5t9 -90.5t29.5 -83q24 -42 51.5 -65t53 -28.5t54.5 4t52.5 25t50 41.5t44 47.5t38.5 48.5z
" />
    <glyph glyph-name="E" unicode="&#xc8;" horiz-adv-x="627" 
d="M538 31q17 23 58 21q26 -2 25 -13q-1 -2 -2 -5q-23 -30 -60 -65t-86 -69t-98 -55t-98 -18t-83 37q-27 28 -44 68.5t-22.5 82t-7.5 86.5t0 81q1 16 2 38q-1 0 -3 -0.5t-3 -0.5q-14 -1 -4 24q5 12 13 19q1 24 7 89.5t9 111.5t2 89q-2 0 -4.5 -0.5t-4.5 -0.5t-4 -1
q-8 -1 -27.5 -5t-34 -7t-31.5 -2.5t-27 5.5q-5 3 -5 12q0 1 0.5 3t0.5 3q1 11 8.5 23t16.5 14q2 0 5 1q12 2 12 -11q16 7 93 18q-1 1 -1 5v7q-2 15 18 34q17 13 19 0q2 -19 3 -41q25 4 57 7.5t51.5 6t23.5 3.5q128 21 267 51q13 3 12 -12q-2 -22 -18 -34l-7 -3
q-158 -34 -308 -58q-34 -6 -77 -12q0 -30 -2 -66t-4 -59t-6 -68.5t-5 -61.5q-1 -15 -2 -31q160 15 313 61q12 4 12 -9q-1 -21 -17 -36l-7 -4q-149 -45 -305 -61q-2 -48 -2.5 -91.5t9 -90.5t29.5 -83q24 -42 51.5 -65t53 -28.5t54.5 4t52.5 25t50 41.5t44 47.5t38.5 48.5z
" />
    <glyph glyph-name="F" unicode="F" horiz-adv-x="389" 
d="M684 702q14 2 5 -22q-11 -27 -26 -28q-227 -24 -445 -93q-3 -144 0 -373q63 31 122 57q11 5 11 -8q-2 -22 -18 -37q-3 -3 -5 -4q-51 -22 -110 -51q2 -195 2 -280q0 -16 -19 -31t-19 7q0 80 -2 285q-39 -19 -79 -41q-11 -22 -24 -21q-3 0 -5.5 0.5t-5.5 0.5t-5 1
q-19 2 -1 32q8 12 13 15q48 26 106 56q-2 234 1 380q-84 -28 -164 -62q-11 -5 -11 8q1 22 18 37l5 4q75 32 153 58q2 53 3 75q1 16 20 31q17 14 18 -5v-2q-2 -33 -3 -86q227 72 465 97z" />
    <glyph glyph-name="G" unicode="G" horiz-adv-x="552" 
d="M533 251q29 -44 -9 -146q2 -226 13 -445q1 -16 -21 -35q-16 -14 -16 1q-10 191 -13 393q-44 -84 -114 -139t-156 -58q-48 -2 -94 18t-76 56q-58 70 -36 198q43 245 183 458q14 21 25.5 36t27.5 33t34 30.5t38 18.5q36 14 74 0.5t54 -48.5q6 -15 -14 -37q-16 -18 -21 -6
q-16 37 -49.5 44t-65.5 -9t-54 -43q-53 -65 -106 -183q-42 -95 -72 -205q-9 -35 -14 -59.5t-7.5 -57.5t4.5 -62t25 -53q32 -46 81.5 -65t99 -11t96.5 35t78 68q33 43 56 108q0 1 2 6v122v4q-43 28 -174 -31q-11 -5 -10 8q0 20 14 36q2 2 4 3q6 4 13 8t15 8.5t13 7.5
q11 6 14 -1q125 46 158 -6z" />
    <glyph glyph-name="H" unicode="H" horiz-adv-x="662" 
d="M648 395q14 2 5 -23q-11 -26 -26 -27q-23 -3 -51 -6q2 -248 -2 -477q0 -16 -19.5 -31t-18.5 7q4 238 1 496q-114 -17 -220 -45q-47 -12 -138 -41q-1 -238 0 -348q1 -16 -18 -31t-20 7q-1 103 0 360q-97 -32 -95 -40q3 -15 -16 -34q-17 -14 -22 0q-6 23 6 43.5t34 34.5
q35 22 93 42v1v1q1 140 1 199q-1 44 -1 61q0 4 -1 12q-1 10 1 9l3 -2q-6 9 -2.5 22t14.5 22.5t17.5 4t8 -20.5t-0.5 -36.5t-2 -23.5q1 -51 0 -192v-23.5v-21.5q50 15 54 16q146 47 304 71q-2 165 -6 297q0 15 19 30q17 15 19 -4v-3q4 -139 6 -315q41 6 73 9z" />
    <glyph glyph-name="I" unicode="I" horiz-adv-x="185" 
d="M166 -89q13 3 12 -12q-2 -22 -18 -34l-7 -3q-32 -7 -66 -16q-2 -1 -5 -1q-34 -9 -65 -18q-12 -4 -12 9q1 21 18 36q3 3 6 4q12 4 46 13q2 192 0 363q-1 102 -3 203q-1 49 -2 96q0 5 1 19t1.5 25.5t-0.5 24.5t-5 19q-34 -9 -50 -14q-12 -3 -12 10q1 21 18 35q3 3 6 4
q68 20 137 35q13 3 12 -12q-2 -21 -18 -34q-4 -2 -7 -3q-10 -2 -45 -11q0 -5 -0.5 -16t-0.5 -16q2 -55 3 -107q2 -102 3 -202q2 -198 0 -410q35 9 53 13z" />
    <glyph glyph-name="I" unicode="&#xcf;" horiz-adv-x="185" 
d="M166 -89q13 3 12 -12q-2 -22 -18 -34l-7 -3q-32 -7 -66 -16q-2 -1 -5 -1q-34 -9 -65 -18q-12 -4 -12 9q1 21 18 36q3 3 6 4q12 4 46 13q2 192 0 363q-1 102 -3 203q-1 49 -2 96q0 5 1 19t1.5 25.5t-0.5 24.5t-5 19q-34 -9 -50 -14q-12 -3 -12 10q1 21 18 35q3 3 6 4
q68 20 137 35q13 3 12 -12q-2 -21 -18 -34q-4 -2 -7 -3q-10 -2 -45 -11q0 -5 -0.5 -16t-0.5 -16q2 -55 3 -107q2 -102 3 -202q2 -198 0 -410q35 9 53 13z" />
    <glyph glyph-name="I" unicode="&#xce;" horiz-adv-x="185" 
d="M166 -89q13 3 12 -12q-2 -22 -18 -34l-7 -3q-32 -7 -66 -16q-2 -1 -5 -1q-34 -9 -65 -18q-12 -4 -12 9q1 21 18 36q3 3 6 4q12 4 46 13q2 192 0 363q-1 102 -3 203q-1 49 -2 96q0 5 1 19t1.5 25.5t-0.5 24.5t-5 19q-34 -9 -50 -14q-12 -3 -12 10q1 21 18 35q3 3 6 4
q68 20 137 35q13 3 12 -12q-2 -21 -18 -34q-4 -2 -7 -3q-10 -2 -45 -11q0 -5 -0.5 -16t-0.5 -16q2 -55 3 -107q2 -102 3 -202q2 -198 0 -410q35 9 53 13z" />
    <glyph glyph-name="I" unicode="&#xcd;" horiz-adv-x="185" 
d="M166 -89q13 3 12 -12q-2 -22 -18 -34l-7 -3q-32 -7 -66 -16q-2 -1 -5 -1q-34 -9 -65 -18q-12 -4 -12 9q1 21 18 36q3 3 6 4q12 4 46 13q2 192 0 363q-1 102 -3 203q-1 49 -2 96q0 5 1 19t1.5 25.5t-0.5 24.5t-5 19q-34 -9 -50 -14q-12 -3 -12 10q1 21 18 35q3 3 6 4
q68 20 137 35q13 3 12 -12q-2 -21 -18 -34q-4 -2 -7 -3q-10 -2 -45 -11q0 -5 -0.5 -16t-0.5 -16q2 -55 3 -107q2 -102 3 -202q2 -198 0 -410q35 9 53 13z" />
    <glyph glyph-name="I" unicode="&#xcc;" horiz-adv-x="185" 
d="M166 -89q13 3 12 -12q-2 -22 -18 -34l-7 -3q-32 -7 -66 -16q-2 -1 -5 -1q-34 -9 -65 -18q-12 -4 -12 9q1 21 18 36q3 3 6 4q12 4 46 13q2 192 0 363q-1 102 -3 203q-1 49 -2 96q0 5 1 19t1.5 25.5t-0.5 24.5t-5 19q-34 -9 -50 -14q-12 -3 -12 10q1 21 18 35q3 3 6 4
q68 20 137 35q13 3 12 -12q-2 -21 -18 -34q-4 -2 -7 -3q-10 -2 -45 -11q0 -5 -0.5 -16t-0.5 -16q2 -55 3 -107q2 -102 3 -202q2 -198 0 -410q35 9 53 13z" />
    <glyph glyph-name="J" unicode="J" horiz-adv-x="389" 
d="M296 620q42 -56 64.5 -133t22.5 -150.5t-10 -148.5q-17 -103 -61 -196q-13 -28 -20.5 -43.5t-22 -40t-30 -42.5t-32.5 -31q-3 -3 -6 -5q-5 -3 -8 -3q-27 -6 -46 18q-2 1 -3 3q-1 1 -2 4q-39 85 11 235q38 114 128 203q17 18 18 -3t-12 -34q-73 -73 -103 -171
q-39 -125 -5 -191q12 -17 28 -14q19 14 38 45t27 49t23 54q32 79 44 166q23 177 -38 318q-42 95 -100 123q-25 12 -49 8.5t-44 -17.5t-34.5 -35t-21.5 -45q-19 -73 5.5 -150t78.5 -140q5 -7 -0.5 -21t-16.5 -22t-18 0q-43 51 -68 112t-27 127.5t27 128.5q19 39 49.5 68.5
t68.5 40.5q77 22 145 -67z" />
    <glyph glyph-name="K" unicode="K" horiz-adv-x="363" 
d="M404 -54q15 9 14 -10q-2 -29 -24 -54l-10 -8q-45 -32 -80 -20.5t-79 79.5q-2 4 -13.5 23.5t-18.5 29.5t-22 25t-28 19t-33 0t-41 -22q-16 -13 -25 -11q1 -72 7 -129q2 -15 -18 -34q-17 -17 -19 0q-5 45 -6.5 98.5t-1 91t2 101t2.5 93.5q1 91 0 430q-1 3 -1 6v6.5v6.5
q1 15 19.5 30.5t18.5 -6.5q2 -360 1 -429q0 -34 -2.5 -110.5t-2.5 -116.5l4 4q168 177 263 392q7 17 28 24q19 7 18 -10q0 -4 -2 -8l-6 -21q-2 -8 -10 -17q-82 -174 -212 -326q46 0 87 -35q20 -17 36 -43.5t24.5 -43.5t23 -29.5t40 -6.5t66.5 31z" />
    <glyph glyph-name="L" unicode="L" horiz-adv-x="341" 
d="M441 -113q23 16 22 -3q-1 -22 -18 -41q-3 -4 -6 -5q-10 -5 -19 -8.5t-19 -3t-17 0t-17.5 4t-15.5 6t-16.5 9t-15 9.5t-17 11.5t-15.5 10.5q-30 21 -68 26t-74 -9.5t-56 -46.5q-6 -10 -15.5 -15.5t-15.5 5.5q-23 90 -35 194.5t-14 198.5t-2.5 199.5t-0.5 198.5
q0 15 19 30.5t19 -7.5q0 -88 0.5 -189t2.5 -190.5t12.5 -189.5t30.5 -187q51 52 123 60q52 5 97 -25q9 -6 23 -18t24.5 -20t24 -14.5t28.5 -4.5t31 14z" />
    <glyph glyph-name="M" unicode="M" horiz-adv-x="670" 
d="M644 448q7 -82 9 -185t3.5 -210t6.5 -185q1 -15 -19 -33q-19 -16 -20 1q-6 88 -8 280t-10 293q-17 217 -75 215q-23 -1 -50 -37q-17 -22 -31.5 -53.5t-22 -54t-19.5 -64t-17 -56.5q-5 -17 -41 -157q-24 -93 -49 -103q-20 -8 -48 20q-7 7 -12.5 17t-9 19t-7.5 23t-6 22
t-5 23t-3 20q-6 27 -14.5 78.5t-12.5 70.5q-2 9 -6 25t-8.5 32.5t-9 32t-8 27t-4.5 14.5q-16 59 -48 9t-44 -132q-2 -13 -3 -23q-21 -307 5 -511q2 -15 -19 -33q-18 -16 -20 1q-14 107 -12 323v32.5v34t0.5 32t1 35t2 32t3 34.5t3.5 31.5t5 34t6.5 31.5t8.5 32q4 14 12 31
t18.5 36.5t24 33t27.5 20.5t30 -0.5t30 -29.5q25 -41 38 -97.5t21.5 -126t17.5 -104.5q22 -90 41 -93q9 -2 16 25q7 32 23 93q42 165 82 256q75 166 154 141q17 -6 30 -21.5t19.5 -32.5t11.5 -45t7 -44.5t3.5 -45t1.5 -34.5z" />
    <glyph glyph-name="N" unicode="N" horiz-adv-x="658" 
d="M613 627q2 16 21 31q18 14 18 -4q0 -2 -1 -3q-32 -325 -55 -480q-18 -123 -36 -203q-1 -4 -4.5 -21.5t-5.5 -25.5t-7 -23.5t-10 -24.5t-13 -18.5t-19 -13.5q-23 -11 -46 2t-43 48.5t-36 70.5t-32 87t-23 77.5t-16 60.5q-3 13 -4 17q-10 37 -29.5 126.5t-33.5 136.5
q-1 2 -2 9q-3 11 -5 17.5t-7 21.5t-8.5 23.5t-9.5 23t-11.5 20.5t-13 15t-14 7.5t-15.5 -2.5q-4 -2 -8.5 -7t-9 -13.5t-7.5 -14.5t-7 -15.5t-5 -10.5q-16 -34 -28 -77q-30 -105 -38 -288q-2 -68 -2 -155q0 -2 2 -37t2 -58.5t-2 -43.5q3 1 5 0t3.5 -4t1.5 -8v-3v-2
q0 -10 -8 -22t-17 -15q-1 0 -3 -0.5t-3 -0.5q-7 -3 -11 3q-8 13 -10 35t0.5 52.5t2.5 37.5q-2 103 1 177q6 188 35 303q37 144 101 207q14 14 26.5 18.5t22.5 -1t18 -12.5t16 -23.5t12 -26t10 -26.5q2 -4 2 -6q11 -28 21 -63.5t15.5 -58.5t15.5 -68t14 -61q36 -159 89 -294
q1 -2 6 -16t7 -19t7.5 -17.5t9.5 -19.5t10 -16t12.5 -15.5t13.5 -11.5q7 -4 12.5 -6t9.5 -1.5t7.5 3t6 7t4.5 9t3.5 11t2.5 11.5t2.5 12t2.5 11q19 91 38.5 232.5t48.5 432.5z" />
    <glyph glyph-name="N" unicode="&#xd1;" horiz-adv-x="658" 
d="M613 627q2 16 21 31q18 14 18 -4q0 -2 -1 -3q-32 -325 -55 -480q-18 -123 -36 -203q-1 -4 -4.5 -21.5t-5.5 -25.5t-7 -23.5t-10 -24.5t-13 -18.5t-19 -13.5q-23 -11 -46 2t-43 48.5t-36 70.5t-32 87t-23 77.5t-16 60.5q-3 13 -4 17q-10 37 -29.5 126.5t-33.5 136.5
q-1 2 -2 9q-3 11 -5 17.5t-7 21.5t-8.5 23.5t-9.5 23t-11.5 20.5t-13 15t-14 7.5t-15.5 -2.5q-4 -2 -8.5 -7t-9 -13.5t-7.5 -14.5t-7 -15.5t-5 -10.5q-16 -34 -28 -77q-30 -105 -38 -288q-2 -68 -2 -155q0 -2 2 -37t2 -58.5t-2 -43.5q3 1 5 0t3.5 -4t1.5 -8v-3v-2
q0 -10 -8 -22t-17 -15q-1 0 -3 -0.5t-3 -0.5q-7 -3 -11 3q-8 13 -10 35t0.5 52.5t2.5 37.5q-2 103 1 177q6 188 35 303q37 144 101 207q14 14 26.5 18.5t22.5 -1t18 -12.5t16 -23.5t12 -26t10 -26.5q2 -4 2 -6q11 -28 21 -63.5t15.5 -58.5t15.5 -68t14 -61q36 -159 89 -294
q1 -2 6 -16t7 -19t7.5 -17.5t9.5 -19.5t10 -16t12.5 -15.5t13.5 -11.5q7 -4 12.5 -6t9.5 -1.5t7.5 3t6 7t4.5 9t3.5 11t2.5 11.5t2.5 12t2.5 11q19 91 38.5 232.5t48.5 432.5z" />
    <glyph glyph-name="O" unicode="O" horiz-adv-x="566" 
d="M476 552q71 -107 81.5 -235t-45.5 -244q-53 -105 -153 -178t-209 -68q-31 1 -55.5 13t-40.5 29t-26.5 44.5t-15.5 52.5t-6 60t0 61t5 61.5t7 54t7 45.5q9 50 16 83.5t22 87.5t39 95.5t54 67.5q44 71 101 91q27 11 54 6.5t49.5 -14.5t45 -30.5t39 -40t31.5 -42.5zM384 -43
q66 54 101.5 131.5t35 159t-28.5 164.5q-15 40 -35 76t-50 70t-64 53q-59 33 -109 4q8 1 11 1q14 1 4 -24q-11 -25 -26 -26q-28 -1 -51 -17q-13 -22 -26 -51q-4 -10 -12.5 -16t-15.5 -6q-16 -35 -39 -132q-36 -147 -32 -290q1 -25 4 -47t11 -45.5t20.5 -40t33 -28.5
t47.5 -15q55 -5 114 17.5t107 61.5z" />
    <glyph glyph-name="O" unicode="&#xd8;" horiz-adv-x="566" 
d="M476 552q71 -107 81.5 -235t-45.5 -244q-53 -105 -153 -178t-209 -68q-31 1 -55.5 13t-40.5 29t-26.5 44.5t-15.5 52.5t-6 60t0 61t5 61.5t7 54t7 45.5q9 50 16 83.5t22 87.5t39 95.5t54 67.5q44 71 101 91q27 11 54 6.5t49.5 -14.5t45 -30.5t39 -40t31.5 -42.5zM384 -43
q66 54 101.5 131.5t35 159t-28.5 164.5q-15 40 -35 76t-50 70t-64 53q-59 33 -109 4q8 1 11 1q14 1 4 -24q-11 -25 -26 -26q-28 -1 -51 -17q-13 -22 -26 -51q-4 -10 -12.5 -16t-15.5 -6q-16 -35 -39 -132q-36 -147 -32 -290q1 -25 4 -47t11 -45.5t20.5 -40t33 -28.5
t47.5 -15q55 -5 114 17.5t107 61.5z" />
    <glyph glyph-name="O" unicode="&#xd6;" horiz-adv-x="566" 
d="M476 552q71 -107 81.5 -235t-45.5 -244q-53 -105 -153 -178t-209 -68q-31 1 -55.5 13t-40.5 29t-26.5 44.5t-15.5 52.5t-6 60t0 61t5 61.5t7 54t7 45.5q9 50 16 83.5t22 87.5t39 95.5t54 67.5q44 71 101 91q27 11 54 6.5t49.5 -14.5t45 -30.5t39 -40t31.5 -42.5zM384 -43
q66 54 101.5 131.5t35 159t-28.5 164.5q-15 40 -35 76t-50 70t-64 53q-59 33 -109 4q8 1 11 1q14 1 4 -24q-11 -25 -26 -26q-28 -1 -51 -17q-13 -22 -26 -51q-4 -10 -12.5 -16t-15.5 -6q-16 -35 -39 -132q-36 -147 -32 -290q1 -25 4 -47t11 -45.5t20.5 -40t33 -28.5
t47.5 -15q55 -5 114 17.5t107 61.5z" />
    <glyph glyph-name="O" unicode="&#xd5;" horiz-adv-x="566" 
d="M476 552q71 -107 81.5 -235t-45.5 -244q-53 -105 -153 -178t-209 -68q-31 1 -55.5 13t-40.5 29t-26.5 44.5t-15.5 52.5t-6 60t0 61t5 61.5t7 54t7 45.5q9 50 16 83.5t22 87.5t39 95.5t54 67.5q44 71 101 91q27 11 54 6.5t49.5 -14.5t45 -30.5t39 -40t31.5 -42.5zM384 -43
q66 54 101.5 131.5t35 159t-28.5 164.5q-15 40 -35 76t-50 70t-64 53q-59 33 -109 4q8 1 11 1q14 1 4 -24q-11 -25 -26 -26q-28 -1 -51 -17q-13 -22 -26 -51q-4 -10 -12.5 -16t-15.5 -6q-16 -35 -39 -132q-36 -147 -32 -290q1 -25 4 -47t11 -45.5t20.5 -40t33 -28.5
t47.5 -15q55 -5 114 17.5t107 61.5z" />
    <glyph glyph-name="O" unicode="&#xd4;" horiz-adv-x="566" 
d="M476 552q71 -107 81.5 -235t-45.5 -244q-53 -105 -153 -178t-209 -68q-31 1 -55.5 13t-40.5 29t-26.5 44.5t-15.5 52.5t-6 60t0 61t5 61.5t7 54t7 45.5q9 50 16 83.5t22 87.5t39 95.5t54 67.5q44 71 101 91q27 11 54 6.5t49.5 -14.5t45 -30.5t39 -40t31.5 -42.5zM384 -43
q66 54 101.5 131.5t35 159t-28.5 164.5q-15 40 -35 76t-50 70t-64 53q-59 33 -109 4q8 1 11 1q14 1 4 -24q-11 -25 -26 -26q-28 -1 -51 -17q-13 -22 -26 -51q-4 -10 -12.5 -16t-15.5 -6q-16 -35 -39 -132q-36 -147 -32 -290q1 -25 4 -47t11 -45.5t20.5 -40t33 -28.5
t47.5 -15q55 -5 114 17.5t107 61.5z" />
    <glyph glyph-name="O" unicode="&#xd3;" horiz-adv-x="566" 
d="M476 552q71 -107 81.5 -235t-45.5 -244q-53 -105 -153 -178t-209 -68q-31 1 -55.5 13t-40.5 29t-26.5 44.5t-15.5 52.5t-6 60t0 61t5 61.5t7 54t7 45.5q9 50 16 83.5t22 87.5t39 95.5t54 67.5q44 71 101 91q27 11 54 6.5t49.5 -14.5t45 -30.5t39 -40t31.5 -42.5zM384 -43
q66 54 101.5 131.5t35 159t-28.5 164.5q-15 40 -35 76t-50 70t-64 53q-59 33 -109 4q8 1 11 1q14 1 4 -24q-11 -25 -26 -26q-28 -1 -51 -17q-13 -22 -26 -51q-4 -10 -12.5 -16t-15.5 -6q-16 -35 -39 -132q-36 -147 -32 -290q1 -25 4 -47t11 -45.5t20.5 -40t33 -28.5
t47.5 -15q55 -5 114 17.5t107 61.5z" />
    <glyph glyph-name="O" unicode="&#xd2;" horiz-adv-x="566" 
d="M476 552q71 -107 81.5 -235t-45.5 -244q-53 -105 -153 -178t-209 -68q-31 1 -55.5 13t-40.5 29t-26.5 44.5t-15.5 52.5t-6 60t0 61t5 61.5t7 54t7 45.5q9 50 16 83.5t22 87.5t39 95.5t54 67.5q44 71 101 91q27 11 54 6.5t49.5 -14.5t45 -30.5t39 -40t31.5 -42.5zM384 -43
q66 54 101.5 131.5t35 159t-28.5 164.5q-15 40 -35 76t-50 70t-64 53q-59 33 -109 4q8 1 11 1q14 1 4 -24q-11 -25 -26 -26q-28 -1 -51 -17q-13 -22 -26 -51q-4 -10 -12.5 -16t-15.5 -6q-16 -35 -39 -132q-36 -147 -32 -290q1 -25 4 -47t11 -45.5t20.5 -40t33 -28.5
t47.5 -15q55 -5 114 17.5t107 61.5z" />
    <glyph glyph-name="P" unicode="P" horiz-adv-x="551" 
d="M514 569q33 -60 30.5 -127t-28.5 -128.5t-70 -111.5q-26 -29 -88.5 -76.5t-109.5 -58.5q0 -166 7 -186q6 3 9.5 -1t0.5 -15q0 -2 -1 -6q-3 -11 -11 -20.5t-18 -10.5l-7 -1q-4 0 -7 4q-10 15 -13 42t-1 69t2 47q-1 33 0 77q-25 9 -30 45q-2 11 10 26.5t21 15.5q0 22 1 33
v26q7 269 -4 404q-80 -33 -127 -104.5t-31 -155.5q3 -16 -17 -35q-17 -17 -21 0q-18 94 26.5 181.5t130.5 137.5q62 36 127 43t124.5 -21.5t94.5 -92.5zM451 255q49 67 54 147.5t-42 149.5q-40 54 -97.5 72.5t-119.5 3.5q10 -135 4 -356q-1 -57 -2 -157q40 1 110.5 56
t92.5 84z" />
    <glyph glyph-name="Q" unicode="Q" horiz-adv-x="551" 
d="M598 -28q13 19 26 0q15 -23 2 -47q-1 -2 -2 -3q-4 -6 -14.5 -21.5t-13.5 -19t-11.5 -15t-12 -14t-12 -10t-14 -8t-15.5 -4.5t-20 -3.5t-22.5 0t-28.5 1.5q-19 1 -40.5 12t-34.5 21t-35 29q-5 4 -8 6q-82 -55 -172 -62q-42 -3 -73.5 11.5t-49.5 38.5t-27.5 62t-12 72
t0 79.5t6.5 73.5l9 63q8 50 15 83.5t22 88t38.5 96t53.5 67.5q45 72 104 90q16 5 32.5 5.5t31.5 -3t29 -10t27.5 -16.5t25.5 -20.5t23 -23.5t20.5 -25.5t18.5 -25.5q67 -101 78.5 -222.5t-38.5 -232.5q-42 -89 -115 -153q16 -16 31 -28q30 -25 52.5 -36t36 -10.5t26.5 13
t20 26t20 37t23 38.5zM47 44q2 -33 9 -60t21.5 -50t39.5 -36.5t59 -13.5q68 0 138 38q-18 18 -36 39t-41 50t-30 37q-9 11 8 34q17 21 27 9q7 -9 27 -33.5t31 -38t29 -33t33 -33.5q12 9 22 18q63 55 94 131t28.5 157.5t-34.5 158.5q-55 130 -138 178q-56 31 -103 6h8
q14 1 4 -23q-11 -25 -26 -27q-27 -1 -49 -16q-13 -22 -25 -49q-4 -10 -12.5 -16t-15.5 -6q-17 -38 -41 -143q-34 -148 -27 -278z" />
    <glyph glyph-name="R" unicode="R" horiz-adv-x="579" 
d="M542 58q12 20 24 1q14 -24 3 -49q-1 -1 -2 -3l-4 -8q-15 -25 -24.5 -39t-26 -34t-35.5 -30.5t-42 -12.5q-16 -1 -30 4.5t-21.5 12t-21.5 21.5t-21 21q-44 40 -90 92q0 -135 6 -153q7 2 10 -1.5t1 -15.5q-1 -1 -1.5 -3t-0.5 -3q-2 -11 -10 -20t-19 -11h-2.5h-4.5
q-4 0 -6 3q-11 15 -14 42t-1 69.5t2 46.5v66q-25 9 -30 46q-1 7 4.5 17t13.5 17.5t14 6.5q0 25 1 37q8 285 -3 418q0 7 5 16q-84 -31 -134 -105t-33 -161q3 -15 -17 -34q-17 -14 -21 0q-18 95 27 183t131 138q63 37 128.5 44t126 -22t95.5 -93q33 -61 30.5 -128.5
t-28.5 -129.5t-71 -112q-19 -23 -67 -61.5t-92 -60.5q7 -7 18.5 -20.5t17.5 -20t16 -17.5t17.5 -18.5t18 -17t20.5 -19.5q22 -19 41.5 -22t33 6t26 26.5t19.5 34.5t14 34.5t9 21.5zM468 545q-40 55 -98 73.5t-121 3.5q11 -140 5 -360q-2 -56 -3 -159q28 1 75 31.5t82.5 62.5
t46.5 47q50 68 55 149.5t-42 151.5z" />
    <glyph glyph-name="S" unicode="S" horiz-adv-x="493" 
d="M213 249q35 -2 68 -7.5t68.5 -17t62 -29t47.5 -42t25.5 -57.5t-3.5 -75q-10 -43 -37.5 -79t-64 -60t-80 -39t-88 -16t-86.5 9q-51 13 -84.5 46.5t-35.5 82.5q-1 39 18.5 73t53.5 53q16 8 16 -8q-1 -22 -16 -35l-3 -2q-20 -11 -27 -31.5t-1.5 -41t18.5 -37.5
q35 -45 114 -56q71 -10 147 15.5t108 82.5q35 62 0 118t-102 80q-37 12 -107.5 16.5t-101 12.5t-45 30.5t-12.5 53t10 62.5t24.5 67t29.5 59t26 45q13 20 20 30.5t22 30t27 30.5t29 21.5t34 13.5q86 18 145 -113q6 -14 -13 -36q-16 -19 -22 -6q-8 17 -14 29t-16.5 28
t-21.5 26t-26.5 17t-32.5 7q-14 0 -27.5 -5.5t-26 -18l-21 -21t-20 -28t-15.5 -25.5t-14 -26q-47 -86 -55 -150q-2 -21 2.5 -35.5t11.5 -22t22.5 -11.5t26 -5t31.5 -2q8 -1 12 -1z" />
    <glyph glyph-name="T" unicode="T" horiz-adv-x="494" 
d="M765 659q8 2 9 -8q2 -20 -14 -38q-6 -5 -11 -6q-164 -26 -342 -50q1 -77 3 -319.5t4 -374.5q0 -16 -19 -31t-19 7q-1 118 -3.5 356t-3.5 357q-181 -24 -353 -43q-15 -2 -8 24q9 26 24 29q167 18 344 41q16 25 26 21q4 -3 4 -13v-4q180 24 359 52z" />
    <glyph glyph-name="U" unicode="U" horiz-adv-x="517" 
d="M456 659q37 -465 55 -695q2 -15 -18 -34q-18 -17 -19 0q-4 54 -12.5 158t-12.5 154q-5 -30 -11 -57q-23 -100 -67.5 -188.5t-110.5 -143.5q-31 -25 -64 -26.5t-63 25.5q-7 7 -13.5 15.5t-11.5 16.5t-10 19.5t-8 19t-6 22t-5 21t-4.5 22t-3.5 20.5t-3 21.5t-3 18.5
q-10 71 -19 254q-4 76 -8 121q-1 4 -1.5 24.5t-2 37t-5 36.5t-8.5 31q-2 -1 -4 -1q-1 1 -3 1q-8 1 -8 8q-3 27 18 45q12 9 18 5q12 -8 19 -28t8.5 -37t3 -44t1.5 -33q4 -37 13 -203q7 -127 19 -202q0 -3 3 -20t4 -23t4 -22t6 -23.5t7 -21.5t9 -22t12 -18t15 -16.5t17 -11.5
q77 -40 165 136q38 75 57 169q14 66 18 149t2.5 135t-7.5 151q-1 15 19 34q18 17 19 0z" />
    <glyph glyph-name="U" unicode="&#xdc;" horiz-adv-x="517" 
d="M456 659q37 -465 55 -695q2 -15 -18 -34q-18 -17 -19 0q-4 54 -12.5 158t-12.5 154q-5 -30 -11 -57q-23 -100 -67.5 -188.5t-110.5 -143.5q-31 -25 -64 -26.5t-63 25.5q-7 7 -13.5 15.5t-11.5 16.5t-10 19.5t-8 19t-6 22t-5 21t-4.5 22t-3.5 20.5t-3 21.5t-3 18.5
q-10 71 -19 254q-4 76 -8 121q-1 4 -1.5 24.5t-2 37t-5 36.5t-8.5 31q-2 -1 -4 -1q-1 1 -3 1q-8 1 -8 8q-3 27 18 45q12 9 18 5q12 -8 19 -28t8.5 -37t3 -44t1.5 -33q4 -37 13 -203q7 -127 19 -202q0 -3 3 -20t4 -23t4 -22t6 -23.5t7 -21.5t9 -22t12 -18t15 -16.5t17 -11.5
q77 -40 165 136q38 75 57 169q14 66 18 149t2.5 135t-7.5 151q-1 15 19 34q18 17 19 0z" />
    <glyph glyph-name="U" unicode="&#xdb;" horiz-adv-x="517" 
d="M456 659q37 -465 55 -695q2 -15 -18 -34q-18 -17 -19 0q-4 54 -12.5 158t-12.5 154q-5 -30 -11 -57q-23 -100 -67.5 -188.5t-110.5 -143.5q-31 -25 -64 -26.5t-63 25.5q-7 7 -13.5 15.5t-11.5 16.5t-10 19.5t-8 19t-6 22t-5 21t-4.5 22t-3.5 20.5t-3 21.5t-3 18.5
q-10 71 -19 254q-4 76 -8 121q-1 4 -1.5 24.5t-2 37t-5 36.5t-8.5 31q-2 -1 -4 -1q-1 1 -3 1q-8 1 -8 8q-3 27 18 45q12 9 18 5q12 -8 19 -28t8.5 -37t3 -44t1.5 -33q4 -37 13 -203q7 -127 19 -202q0 -3 3 -20t4 -23t4 -22t6 -23.5t7 -21.5t9 -22t12 -18t15 -16.5t17 -11.5
q77 -40 165 136q38 75 57 169q14 66 18 149t2.5 135t-7.5 151q-1 15 19 34q18 17 19 0z" />
    <glyph glyph-name="U" unicode="&#xda;" horiz-adv-x="517" 
d="M456 659q37 -465 55 -695q2 -15 -18 -34q-18 -17 -19 0q-4 54 -12.5 158t-12.5 154q-5 -30 -11 -57q-23 -100 -67.5 -188.5t-110.5 -143.5q-31 -25 -64 -26.5t-63 25.5q-7 7 -13.5 15.5t-11.5 16.5t-10 19.5t-8 19t-6 22t-5 21t-4.5 22t-3.5 20.5t-3 21.5t-3 18.5
q-10 71 -19 254q-4 76 -8 121q-1 4 -1.5 24.5t-2 37t-5 36.5t-8.5 31q-2 -1 -4 -1q-1 1 -3 1q-8 1 -8 8q-3 27 18 45q12 9 18 5q12 -8 19 -28t8.5 -37t3 -44t1.5 -33q4 -37 13 -203q7 -127 19 -202q0 -3 3 -20t4 -23t4 -22t6 -23.5t7 -21.5t9 -22t12 -18t15 -16.5t17 -11.5
q77 -40 165 136q38 75 57 169q14 66 18 149t2.5 135t-7.5 151q-1 15 19 34q18 17 19 0z" />
    <glyph glyph-name="U" unicode="&#xd9;" horiz-adv-x="517" 
d="M456 659q37 -465 55 -695q2 -15 -18 -34q-18 -17 -19 0q-4 54 -12.5 158t-12.5 154q-5 -30 -11 -57q-23 -100 -67.5 -188.5t-110.5 -143.5q-31 -25 -64 -26.5t-63 25.5q-7 7 -13.5 15.5t-11.5 16.5t-10 19.5t-8 19t-6 22t-5 21t-4.5 22t-3.5 20.5t-3 21.5t-3 18.5
q-10 71 -19 254q-4 76 -8 121q-1 4 -1.5 24.5t-2 37t-5 36.5t-8.5 31q-2 -1 -4 -1q-1 1 -3 1q-8 1 -8 8q-3 27 18 45q12 9 18 5q12 -8 19 -28t8.5 -37t3 -44t1.5 -33q4 -37 13 -203q7 -127 19 -202q0 -3 3 -20t4 -23t4 -22t6 -23.5t7 -21.5t9 -22t12 -18t15 -16.5t17 -11.5
q77 -40 165 136q38 75 57 169q14 66 18 149t2.5 135t-7.5 151q-1 15 19 34q18 17 19 0z" />
    <glyph glyph-name="V" unicode="V" horiz-adv-x="451" 
d="M623 668q8 14 17.5 15.5t12 -7.5t-5.5 -23q-104 -178 -206 -483q-10 -30 -36.5 -111t-41.5 -125q-1 -1 -5 -13t-5.5 -16t-5.5 -15t-7 -16t-8 -14t-10 -13.5t-11.5 -9.5t-14 -7.5t-16.5 -3.5q-16 -1 -33 8.5t-28 21.5t-25 34t-19.5 32t-15.5 30q-39 78 -63 192
q-6 24 -34 186.5t-56 245.5q-5 13 13 32q18 20 24 2q20 -56 33 -115t27.5 -148.5t19.5 -118.5q23 -121 54 -196q7 -18 11 -27t14.5 -31.5t20 -35.5t21.5 -28t25 -21t27 -3q10 2 16.5 7.5t9 10t6 18t5.5 19.5q4 11 15 45q5 16 11 34t13.5 40t11.5 35q39 118 63 187
q81 225 176 386z" />
    <glyph glyph-name="W" unicode="W" horiz-adv-x="736" 
d="M728 268q17 -198 -78 -297q-25 -26 -50 -38t-47 -9t-43 14.5t-40 35.5t-35.5 49.5t-32.5 61.5t-28.5 67t-25 69.5t-21 66t-17.5 59.5q-2 -13 -39 -216q-2 -9 -8.5 -45.5t-9 -50t-9 -44t-11 -49t-11.5 -43.5t-15 -47q-3 -9 -13 -19t-17 -5q-49 37 -76 123q-28 91 -47 219
q-8 52 -15 114.5t-11.5 106.5t-11 118.5t-10.5 109.5q-1 16 19 35q17 16 19 0q3 -35 9 -100.5t10 -107t10 -98t13 -104.5q15 -113 37 -200q10 -39 15 -56.5t18.5 -47t31.5 -47.5q8 28 16 62.5t12.5 58.5t11.5 66l10 60q9 46 26.5 142.5t26.5 147.5q3 13 19 27q13 9 18 -4
q57 -199 95 -293q2 -3 7.5 -18t8 -20.5t8 -18t9 -20t9 -17.5t11 -18.5t11.5 -16.5q19 -26 46 -40.5t58 -11t54 30.5q76 90 33 315q-27 139 -103 274q-7 14 12 37q16 18 23 6q102 -183 118 -374z" />
    <glyph glyph-name="X" unicode="X" horiz-adv-x="571" 
d="M662 -80q16 -3 4 -28t-26 -23q-52 8 -102.5 36t-96.5 73t-79.5 85t-71.5 93q-61 -108 -117 -182q-1 -2 -14.5 -20t-17.5 -22.5t-17 -21t-19.5 -23t-19 -18.5t-22 -18.5t-21.5 -13.5t-24 -10.5t-12 9.5q1 21 18 36l6 4q11 3 22 10t19 13.5t19 18.5t16 18.5t16 20.5t15 18
q35 43 69 97q30 46 66 109q-48 68 -97.5 154t-79 145.5t-80.5 162.5q-7 15 13 37q16 18 22 6q47 -97 75 -153t74 -137.5t90 -145.5q2 -4 11 -17q13 22 17 30t13 24q44 81 69 125.5t67 111t82 117.5q17 20 23 6q7 -16 -7 -34q-34 -44 -71.5 -102.5t-56 -90t-64 -115.5
t-53.5 -98q65 -90 134 -158q56 -55 104 -88t105 -41z" />
    <glyph glyph-name="Y" unicode="Y" horiz-adv-x="595" 
d="M587 -325q0 -11 1 -59.5t0 -70t-9 -56.5t-24 -60q-4 -7 -12.5 -14.5t-14.5 -2.5q-8 8 -14.5 17.5t-10 23t-6 20.5t-3 25t-0.5 22t0.5 26l0.5 22q1 111 26 234q1 10 10.5 19t17.5 10q-1 108 -3 193q-1 20 -2.5 103t-3 120t-6.5 100t-13 114q-18 -203 -52 -310
q-10 -29 -20.5 -56.5t-29 -64t-38.5 -63t-48 -46t-57 -21.5q-24 -2 -45.5 8t-37.5 25t-31.5 41t-25 47t-20.5 54t-15.5 50.5t-12.5 46.5q-3 12 -4 18q-18 66 -31 145.5t-19 137.5t-14 148q-9 -3 -12.5 2t2.5 20l11 22q6 12 21 22q12 8 13 -6q20 -235 43 -354q11 -55 18 -88
t21.5 -83.5t33.5 -90.5t44 -72q82 -102 165 36q49 80 72 181q8 34 14 72.5t10 76.5t7 72.5t6.5 76.5t7.5 74q1 13 18 30q15 16 20 -1q15 -55 24.5 -113.5t14 -130t6.5 -114.5t3 -131.5t2 -116.5q4 -165 2 -330zM534 -366q0 -2 -2.5 -35t-2 -46t3.5 -36t11 -38q5 18 6 40
t0 51t-1 39q1 70 1 138v14.5v13.5q-13 -73 -16 -141z" />
    <glyph glyph-name="Y" unicode="&#xdd;" horiz-adv-x="595" 
d="M587 -325q0 -11 1 -59.5t0 -70t-9 -56.5t-24 -60q-4 -7 -12.5 -14.5t-14.5 -2.5q-8 8 -14.5 17.5t-10 23t-6 20.5t-3 25t-0.5 22t0.5 26l0.5 22q1 111 26 234q1 10 10.5 19t17.5 10q-1 108 -3 193q-1 20 -2.5 103t-3 120t-6.5 100t-13 114q-18 -203 -52 -310
q-10 -29 -20.5 -56.5t-29 -64t-38.5 -63t-48 -46t-57 -21.5q-24 -2 -45.5 8t-37.5 25t-31.5 41t-25 47t-20.5 54t-15.5 50.5t-12.5 46.5q-3 12 -4 18q-18 66 -31 145.5t-19 137.5t-14 148q-9 -3 -12.5 2t2.5 20l11 22q6 12 21 22q12 8 13 -6q20 -235 43 -354q11 -55 18 -88
t21.5 -83.5t33.5 -90.5t44 -72q82 -102 165 36q49 80 72 181q8 34 14 72.5t10 76.5t7 72.5t6.5 76.5t7.5 74q1 13 18 30q15 16 20 -1q15 -55 24.5 -113.5t14 -130t6.5 -114.5t3 -131.5t2 -116.5q4 -165 2 -330zM534 -366q0 -2 -2.5 -35t-2 -46t3.5 -36t11 -38q5 18 6 40
t0 51t-1 39q1 70 1 138v14.5v13.5q-13 -73 -16 -141z" />
    <glyph glyph-name="Z" unicode="Z" horiz-adv-x="642" 
d="M606 -83q8 13 17.5 15t12 -7t-5.5 -23q-17 -29 -42 -47t-53.5 -24.5t-59.5 -3.5t-61 15.5t-83 46.5t-81 46q-47 22 -92.5 18.5t-78.5 -32.5q-22 -33 -41 -60q-12 -19 -26 -15q-11 3 -2 23q22 48 55 82l126 183l126 183q14 21 43.5 65.5t47.5 71.5t46.5 63t55.5 63
q-215 -49 -431 -17q-17 2 -5 28q12 25 26 23q252 -38 494 34q13 3 12 -9q-2 -20 -17 -36q-1 -2 -3 -2q-35 -23 -67.5 -55t-62 -71t-52 -72.5t-52 -80.5t-47.5 -73q-142 -206 -174 -254q50 20 106 4q29 -8 57.5 -23t63 -37t53.5 -32q23 -12 48.5 -20.5t53.5 -11.5t53 7.5
t40 34.5z" />
    <glyph glyph-name="a" unicode="a" horiz-adv-x="236" 
d="M229 30q2 -3 -2 -11q-12 -20 -25 -19t-20.5 6t-11.5 16.5t-5 21t-2 28.5v7q-1 22 -1 57v2v2q-21 -81 -56 -118q-21 -23 -43 -23q-6 0 -10 1q-30 8 -41 51q-12 48 -4 100t32 86q23 32 47 28q10 -2 18.5 -10.5t13.5 -15.5t12 -20q6 -11 9 -16q4 -6 -1 -17.5t-13 -17.5
q-9 -5 -14 2q-2 3 -8 13q-12 24 -18 28q-16 10 -26 5q-13 -6 -19 -48v-1.5t-1 -2.5q-11 -79 13 -110q14 -21 30 -17q13 2 26 19.5t21 35.5t11 33q4 12 7 43q6 43 12 60q2 4 9.5 11.5t12.5 7.5h1q5 0 6 -7q1 -9 1 -50q-1 -39 -0.5 -62t5.5 -53t15 -39q5 -5 12 -4q5 1 7 -2z
" />
    <glyph glyph-name="a" unicode="&#xe5;" horiz-adv-x="236" 
d="M229 30q2 -3 -2 -11q-12 -20 -25 -19t-20.5 6t-11.5 16.5t-5 21t-2 28.5v7q-1 22 -1 57v2v2q-21 -81 -56 -118q-21 -23 -43 -23q-6 0 -10 1q-30 8 -41 51q-12 48 -4 100t32 86q23 32 47 28q10 -2 18.5 -10.5t13.5 -15.5t12 -20q6 -11 9 -16q4 -6 -1 -17.5t-13 -17.5
q-9 -5 -14 2q-2 3 -8 13q-12 24 -18 28q-16 10 -26 5q-13 -6 -19 -48v-1.5t-1 -2.5q-11 -79 13 -110q14 -21 30 -17q13 2 26 19.5t21 35.5t11 33q4 12 7 43q6 43 12 60q2 4 9.5 11.5t12.5 7.5h1q5 0 6 -7q1 -9 1 -50q-1 -39 -0.5 -62t5.5 -53t15 -39q5 -5 12 -4q5 1 7 -2z
" />
    <glyph glyph-name="a" unicode="&#xe4;" horiz-adv-x="236" 
d="M229 30q2 -3 -2 -11q-12 -20 -25 -19t-20.5 6t-11.5 16.5t-5 21t-2 28.5v7q-1 22 -1 57v2v2q-21 -81 -56 -118q-21 -23 -43 -23q-6 0 -10 1q-30 8 -41 51q-12 48 -4 100t32 86q23 32 47 28q10 -2 18.5 -10.5t13.5 -15.5t12 -20q6 -11 9 -16q4 -6 -1 -17.5t-13 -17.5
q-9 -5 -14 2q-2 3 -8 13q-12 24 -18 28q-16 10 -26 5q-13 -6 -19 -48v-1.5t-1 -2.5q-11 -79 13 -110q14 -21 30 -17q13 2 26 19.5t21 35.5t11 33q4 12 7 43q6 43 12 60q2 4 9.5 11.5t12.5 7.5h1q5 0 6 -7q1 -9 1 -50q-1 -39 -0.5 -62t5.5 -53t15 -39q5 -5 12 -4q5 1 7 -2z
" />
    <glyph glyph-name="a" unicode="&#xe3;" horiz-adv-x="236" 
d="M229 30q2 -3 -2 -11q-12 -20 -25 -19t-20.5 6t-11.5 16.5t-5 21t-2 28.5v7q-1 22 -1 57v2v2q-21 -81 -56 -118q-21 -23 -43 -23q-6 0 -10 1q-30 8 -41 51q-12 48 -4 100t32 86q23 32 47 28q10 -2 18.5 -10.5t13.5 -15.5t12 -20q6 -11 9 -16q4 -6 -1 -17.5t-13 -17.5
q-9 -5 -14 2q-2 3 -8 13q-12 24 -18 28q-16 10 -26 5q-13 -6 -19 -48v-1.5t-1 -2.5q-11 -79 13 -110q14 -21 30 -17q13 2 26 19.5t21 35.5t11 33q4 12 7 43q6 43 12 60q2 4 9.5 11.5t12.5 7.5h1q5 0 6 -7q1 -9 1 -50q-1 -39 -0.5 -62t5.5 -53t15 -39q5 -5 12 -4q5 1 7 -2z
" />
    <glyph glyph-name="a" unicode="&#xe2;" horiz-adv-x="236" 
d="M229 30q2 -3 -2 -11q-12 -20 -25 -19t-20.5 6t-11.5 16.5t-5 21t-2 28.5v7q-1 22 -1 57v2v2q-21 -81 -56 -118q-21 -23 -43 -23q-6 0 -10 1q-30 8 -41 51q-12 48 -4 100t32 86q23 32 47 28q10 -2 18.5 -10.5t13.5 -15.5t12 -20q6 -11 9 -16q4 -6 -1 -17.5t-13 -17.5
q-9 -5 -14 2q-2 3 -8 13q-12 24 -18 28q-16 10 -26 5q-13 -6 -19 -48v-1.5t-1 -2.5q-11 -79 13 -110q14 -21 30 -17q13 2 26 19.5t21 35.5t11 33q4 12 7 43q6 43 12 60q2 4 9.5 11.5t12.5 7.5h1q5 0 6 -7q1 -9 1 -50q-1 -39 -0.5 -62t5.5 -53t15 -39q5 -5 12 -4q5 1 7 -2z
" />
    <glyph glyph-name="a" unicode="&#xe1;" horiz-adv-x="236" 
d="M229 30q2 -3 -2 -11q-12 -20 -25 -19t-20.5 6t-11.5 16.5t-5 21t-2 28.5v7q-1 22 -1 57v2v2q-21 -81 -56 -118q-21 -23 -43 -23q-6 0 -10 1q-30 8 -41 51q-12 48 -4 100t32 86q23 32 47 28q10 -2 18.5 -10.5t13.5 -15.5t12 -20q6 -11 9 -16q4 -6 -1 -17.5t-13 -17.5
q-9 -5 -14 2q-2 3 -8 13q-12 24 -18 28q-16 10 -26 5q-13 -6 -19 -48v-1.5t-1 -2.5q-11 -79 13 -110q14 -21 30 -17q13 2 26 19.5t21 35.5t11 33q4 12 7 43q6 43 12 60q2 4 9.5 11.5t12.5 7.5h1q5 0 6 -7q1 -9 1 -50q-1 -39 -0.5 -62t5.5 -53t15 -39q5 -5 12 -4q5 1 7 -2z
" />
    <glyph glyph-name="a" unicode="&#xe0;" horiz-adv-x="236" 
d="M229 30q2 -3 -2 -11q-12 -20 -25 -19t-20.5 6t-11.5 16.5t-5 21t-2 28.5v7q-1 22 -1 57v2v2q-21 -81 -56 -118q-21 -23 -43 -23q-6 0 -10 1q-30 8 -41 51q-12 48 -4 100t32 86q23 32 47 28q10 -2 18.5 -10.5t13.5 -15.5t12 -20q6 -11 9 -16q4 -6 -1 -17.5t-13 -17.5
q-9 -5 -14 2q-2 3 -8 13q-12 24 -18 28q-16 10 -26 5q-13 -6 -19 -48v-1.5t-1 -2.5q-11 -79 13 -110q14 -21 30 -17q13 2 26 19.5t21 35.5t11 33q4 12 7 43q6 43 12 60q2 4 9.5 11.5t12.5 7.5h1q5 0 6 -7q1 -9 1 -50q-1 -39 -0.5 -62t5.5 -53t15 -39q5 -5 12 -4q5 1 7 -2z
" />
    <glyph glyph-name="b" unicode="b" horiz-adv-x="204" 
d="M157 281q30 -20 38 -67t-4 -86q-11 -40 -36 -75t-61 -46q-38 -12 -60 17v-1v-5q0 -5 -6 -12.5t-11 -10.5q-3 -2 -5 -2t-3 1q-3 2 -3 9q6 117 7 351q1 235 7 352q0 4 4 10t9 10t9 4q6 0 5 -9q-5 -117 -7 -353q0 -92 -1 -139q67 87 118 52zM42 136q-3 -16 -1.5 -32.5
t7.5 -32.5t17 -23q18 -14 45 -1q26 13 41.5 40.5t18.5 55.5q4 30 -3.5 62.5t-33.5 44.5q-38 19 -89 -53q-2 -3 -5 -6q0 -11 -1 -30v-12q2 -1 3 -2q2 -2 1 -11z" />
    <glyph glyph-name="c" unicode="c" horiz-adv-x="189" 
d="M181 118q5 -11 -4 -23q-34 -43 -64 -77q-2 -2 -4 -5q-22 -25 -37 -28q-4 -1 -9 -1q-11 0 -21 7q-26 19 -35 88q-9 79 21 131q26 43 56 48q16 2 30 -10q4 -5 2 -13t-8 -15q-9 -10 -15 -5q-14 12 -25 7q-15 -6 -24.5 -33t-10.5 -48q-2 -39 8 -76q10 -35 26 -42l12 -1.5
t9.5 3.5t8 7l7.5 9q4 5 5 6q25 29 55 68q7 8 12 8q4 -1 5 -5z" />
    <glyph glyph-name="c" unicode="&#xe7;" horiz-adv-x="189" 
d="M181 118q5 -11 -4 -23q-34 -43 -64 -77q-2 -2 -4 -5q-22 -25 -37 -28q-4 -1 -9 -1q-11 0 -21 7q-26 19 -35 88q-9 79 21 131q26 43 56 48q16 2 30 -10q4 -5 2 -13t-8 -15q-9 -10 -15 -5q-14 12 -25 7q-15 -6 -24.5 -33t-10.5 -48q-2 -39 8 -76q10 -35 26 -42l12 -1.5
t9.5 3.5t8 7l7.5 9q4 5 5 6q25 29 55 68q7 8 12 8q4 -1 5 -5z" />
    <glyph glyph-name="d" unicode="d" horiz-adv-x="183" 
d="M175 79q3 -1 3 -6q0 -7 -4 -15.5t-9 -11.5q-5 -4 -13 -10v-3.5v-3.5q-1 -6 -1 -11t-5.5 -12.5t-11.5 -10.5q-3 -2 -5 -2q-1 0 -2 1q-4 2 -3 9v8v5q-41 -27 -73 -10q-55 28 -44 131q10 93 54 133q34 30 69 3v81q2 234 7 352q0 4 4 10t9 10t9 4q6 0 5 -9q-5 -117 -6 -352
q-2 -200 -5 -301q7 6 13 9.5t9 1.5zM129 214q-13 27 -31 33q-6 3 -12 3q-13 0 -21.5 -11t-16.5 -30q-22 -55 -14 -107q5 -28 19 -48t38 -20q16 0 34 12q3 79 4 168z" />
    <glyph glyph-name="e" unicode="e" horiz-adv-x="256" 
d="M249 130q7 -6 -38 -63q-58 -75 -123 -79h-5q-33 0 -53 24.5t-24 59.5q-7 69 38 135q57 83 102 53v-1v0q2 -1 2 -2q21 -31 -17 -80q-33 -44 -83 -82q-4 -3 -8 -2q-4 2 -5 10q-2 12 14 23v1q92 70 75 100q-13 7 -27 2q-12 -5 -25 -21t-21 -32t-12 -29q-14 -48 2 -85
q14 -33 41 -37q29 -4 65.5 20.5t67.5 59.5q7 8 19 18t15 7z" />
    <glyph glyph-name="e" unicode="&#xeb;" horiz-adv-x="256" 
d="M249 130q7 -6 -38 -63q-58 -75 -123 -79h-5q-33 0 -53 24.5t-24 59.5q-7 69 38 135q57 83 102 53v-1v0q2 -1 2 -2q21 -31 -17 -80q-33 -44 -83 -82q-4 -3 -8 -2q-4 2 -5 10q-2 12 14 23v1q92 70 75 100q-13 7 -27 2q-12 -5 -25 -21t-21 -32t-12 -29q-14 -48 2 -85
q14 -33 41 -37q29 -4 65.5 20.5t67.5 59.5q7 8 19 18t15 7z" />
    <glyph glyph-name="e" unicode="&#xea;" horiz-adv-x="256" 
d="M249 130q7 -6 -38 -63q-58 -75 -123 -79h-5q-33 0 -53 24.5t-24 59.5q-7 69 38 135q57 83 102 53v-1v0q2 -1 2 -2q21 -31 -17 -80q-33 -44 -83 -82q-4 -3 -8 -2q-4 2 -5 10q-2 12 14 23v1q92 70 75 100q-13 7 -27 2q-12 -5 -25 -21t-21 -32t-12 -29q-14 -48 2 -85
q14 -33 41 -37q29 -4 65.5 20.5t67.5 59.5q7 8 19 18t15 7z" />
    <glyph glyph-name="e" unicode="&#xe9;" horiz-adv-x="256" 
d="M249 130q7 -6 -38 -63q-58 -75 -123 -79h-5q-33 0 -53 24.5t-24 59.5q-7 69 38 135q57 83 102 53v-1v0q2 -1 2 -2q21 -31 -17 -80q-33 -44 -83 -82q-4 -3 -8 -2q-4 2 -5 10q-2 12 14 23v1q92 70 75 100q-13 7 -27 2q-12 -5 -25 -21t-21 -32t-12 -29q-14 -48 2 -85
q14 -33 41 -37q29 -4 65.5 20.5t67.5 59.5q7 8 19 18t15 7z" />
    <glyph glyph-name="e" unicode="&#xe8;" horiz-adv-x="256" 
d="M249 130q7 -6 -38 -63q-58 -75 -123 -79h-5q-33 0 -53 24.5t-24 59.5q-7 69 38 135q57 83 102 53v-1v0q2 -1 2 -2q21 -31 -17 -80q-33 -44 -83 -82q-4 -3 -8 -2q-4 2 -5 10q-2 12 14 23v1q92 70 75 100q-13 7 -27 2q-12 -5 -25 -21t-21 -32t-12 -29q-14 -48 2 -85
q14 -33 41 -37q29 -4 65.5 20.5t67.5 59.5q7 8 19 18t15 7z" />
    <glyph glyph-name="f" unicode="f" horiz-adv-x="183" 
d="M169 121q10 11 16 5q4 -3 3 -10.5t-7 -14.5q-54 -59 -100 -127v-1q7 -29 24 -88q22 -72 29 -109q16 -90 -22 -124q-17 -15 -40 -15q-4 0 -8 1q-40 5 -67 44q-40 59 -12 151q21 66 65 136q-7 35 -11 66q-31 226 34 380q17 39 41 72q0 1 3 5q23 33 40 37q12 3 19 -4
q21 -20 7 -119q-1 -10 -2 -11q-11 -103 -42 -200q-22 -67 -39 -100q-13 -26 -31 -32q-2 -1 -4 -1q4 -29 10 -58q47 65 94 117zM92 403q-52 -135 -30 -322q6 14 14 17q8 2 22 49q3 7 3 9q12 31 21 63q18 64 28 129q9 61 9 115q1 17 -6 20.5t-20 -6.5q-5 -4 -12 -17
q-3 -5 -4 -7q-14 -23 -25 -50zM57 -62q-93 -157 -29 -235q20 -25 46 -29q20 -2 29 7q11 11 7 48q-4 35 -22 97q-20 70 -31 112z" />
    <glyph glyph-name="g" unicode="g" horiz-adv-x="244" 
d="M238 249q2 -14 -13 -25q-6 -5 -12 -3q-3 2 -12 6q-15 6 -24 9t-24 5t-29.5 -3.5t-29.5 -18.5q-35 -30 -49.5 -88.5t9.5 -91.5q13 -18 32 -14q20 4 41 32.5t26 50.5q1 5 4 18q8 34 16 51q1 4 8.5 11t12.5 7q4 -1 4 -7q5 -79 6 -225q2 0 4 -3q5 -11 -4 -24q0 -34 1 -58
q0 -24 3 -76q2 -53 3.5 -101.5t-8.5 -101t-32 -91.5q-34 -60 -84 -60q-6 0 -12 1q-11 2 -19 9t-11.5 18.5t-5 22.5t-0.5 27t2 25t3 23q1 9 2 13q24 189 136 355q-2 68 -7 155q0 -1 -1 -2q-10 -32 -44 -70q-30 -35 -68 -35q-25 0 -38.5 22t-16.5 47q-7 48 14 96t60 79
q72 54 153 22q3 -2 4 -7zM75 -389q-12 -61 -8.5 -89.5t17.5 -33.5q26 -10 63 51q44 70 36 365q-70 -114 -108 -293z" />
    <glyph glyph-name="h" unicode="h" horiz-adv-x="263" 
d="M283 167q8 -3 3 -17l-2 -4q-5 -14 -8 -22t-10 -24t-14 -26t-15.5 -20.5t-19 -14.5t-20.5 -2t-17.5 9.5t-11.5 15t-7.5 21.5t-5 22t-3.5 22.5t-3 19.5q0 4 -2 13q-8 53 -28 64q-12 6 -22.5 3t-18.5 -13q-22 -27 -38 -100q-3 -14 -5 -30q1 -41 2 -89q0 -6 -7.5 -15.5
t-13.5 -10.5q-5 0 -6 7q-7 42 -3 86q-5 197 4 322l1 13q3 51 6.5 81t11.5 76.5t23 84t38 66.5q26 35 53 36q15 0 26 -12q10 -11 11.5 -33.5t-1 -38t-8.5 -40.5q-2 -12 -3 -17q-34 -169 -135 -315h-1q-1 -53 0 -117q1 3 2 5l2 5q9 22 15.5 34.5t20.5 28.5t31 21q20 5 34 -3
q24 -15 36 -75q2 -9 5 -27q5 -34 10 -50q5 -19 11 -26q7 -7 14 -7q8 0 19 15q13 16 28 58l2 5q3 8 9.5 12.5t10.5 2.5zM150 636q7 37 1 52q-6 17 -17 17q-8 0 -18 -8.5t-17 -19t-11 -19.5q-14 -30 -24 -68q-25 -100 -30 -265q69 108 99 228q10 37 15 72q0 3 2 11z" />
    <glyph glyph-name="i" unicode="i" horiz-adv-x="128" 
d="M166 136q6 -4 -22 -53q-18 -30 -22 -36q-13 -19 -30.5 -33t-33.5 -14h-3q-21 2 -32 31q-12 31 -11 101v2q0 15 2 43v17q0 2 1 11q4 38 2 48q-3 1 -4 3l-2 1q-4 5 0 13.5t9 14.5l2 2q9 8 14 3q7 -6 6 -23v-4q1 -22 -1 -64v-17q-3 -58 1 -89l1 -3q3 -30 9 -41q9 -14 22 -14
h1q8 0 14 9q32 44 50 66.5t21.5 25t5.5 0.5zM13 297q-2 0 -3 1q-5 2 -5 9q1 13 14 23l4 3q5 4 11 7l3 1q8 3 11 1q2 -2 2 -9q-1 -14 -14 -24q-5 -3 -6 -4q-1 0 -5 -4h-1l-5 -2q-3 -2 -6 -2z" />
    <glyph glyph-name="i" unicode="&#xef;" horiz-adv-x="128" 
d="M166 136q6 -4 -22 -53q-18 -30 -22 -36q-13 -19 -30.5 -33t-33.5 -14h-3q-21 2 -32 31q-12 31 -11 101v2q0 15 2 43v17q0 2 1 11q4 38 2 48q-3 1 -4 3l-2 1q-4 5 0 13.5t9 14.5l2 2q9 8 14 3q7 -6 6 -23v-4q1 -22 -1 -64v-17q-3 -58 1 -89l1 -3q3 -30 9 -41q9 -14 22 -14
h1q8 0 14 9q32 44 50 66.5t21.5 25t5.5 0.5zM13 297q-2 0 -3 1q-5 2 -5 9q1 13 14 23l4 3q5 4 11 7l3 1q8 3 11 1q2 -2 2 -9q-1 -14 -14 -24q-5 -3 -6 -4q-1 0 -5 -4h-1l-5 -2q-3 -2 -6 -2z" />
    <glyph glyph-name="i" unicode="&#xee;" horiz-adv-x="128" 
d="M166 136q6 -4 -22 -53q-18 -30 -22 -36q-13 -19 -30.5 -33t-33.5 -14h-3q-21 2 -32 31q-12 31 -11 101v2q0 15 2 43v17q0 2 1 11q4 38 2 48q-3 1 -4 3l-2 1q-4 5 0 13.5t9 14.5l2 2q9 8 14 3q7 -6 6 -23v-4q1 -22 -1 -64v-17q-3 -58 1 -89l1 -3q3 -30 9 -41q9 -14 22 -14
h1q8 0 14 9q32 44 50 66.5t21.5 25t5.5 0.5zM13 297q-2 0 -3 1q-5 2 -5 9q1 13 14 23l4 3q5 4 11 7l3 1q8 3 11 1q2 -2 2 -9q-1 -14 -14 -24q-5 -3 -6 -4q-1 0 -5 -4h-1l-5 -2q-3 -2 -6 -2z" />
    <glyph glyph-name="i" unicode="&#xed;" horiz-adv-x="128" 
d="M166 136q6 -4 -22 -53q-18 -30 -22 -36q-13 -19 -30.5 -33t-33.5 -14h-3q-21 2 -32 31q-12 31 -11 101v2q0 15 2 43v17q0 2 1 11q4 38 2 48q-3 1 -4 3l-2 1q-4 5 0 13.5t9 14.5l2 2q9 8 14 3q7 -6 6 -23v-4q1 -22 -1 -64v-17q-3 -58 1 -89l1 -3q3 -30 9 -41q9 -14 22 -14
h1q8 0 14 9q32 44 50 66.5t21.5 25t5.5 0.5zM13 297q-2 0 -3 1q-5 2 -5 9q1 13 14 23l4 3q5 4 11 7l3 1q8 3 11 1q2 -2 2 -9q-1 -14 -14 -24q-5 -3 -6 -4q-1 0 -5 -4h-1l-5 -2q-3 -2 -6 -2z" />
    <glyph glyph-name="i" unicode="&#xec;" horiz-adv-x="128" 
d="M166 136q6 -4 -22 -53q-18 -30 -22 -36q-13 -19 -30.5 -33t-33.5 -14h-3q-21 2 -32 31q-12 31 -11 101v2q0 15 2 43v17q0 2 1 11q4 38 2 48q-3 1 -4 3l-2 1q-4 5 0 13.5t9 14.5l2 2q9 8 14 3q7 -6 6 -23v-4q1 -22 -1 -64v-17q-3 -58 1 -89l1 -3q3 -30 9 -41q9 -14 22 -14
h1q8 0 14 9q32 44 50 66.5t21.5 25t5.5 0.5zM13 297q-2 0 -3 1q-5 2 -5 9q1 13 14 23l4 3q5 4 11 7l3 1q8 3 11 1q2 -2 2 -9q-1 -14 -14 -24q-5 -3 -6 -4q-1 0 -5 -4h-1l-5 -2q-3 -2 -6 -2z" />
    <glyph glyph-name="j" unicode="j" horiz-adv-x="191" 
d="M182 40q8 -223 -29 -359q-29 -106 -85 -182q-10 -15 -24 -30.5t-43 -35.5t-55 -20q-11 0 -21 4q-62 22 -27 164q22 93 75 199q71 142 181 263q0 9 -1 20q-3 104 -17 153q-5 16 -14 17q-19 3 -50 -48q-22 -35 -32 -81q-1 -8 -8.5 -15t-13.5 -5q-6 1 -4 13q11 53 39 102
t65 70q15 8 26 2q31 -18 35 -155q0 -10 1 -11l1 -36q1 -9 1 -29zM136 -287q25 115 19 297q-88 -99 -148 -211q-41 -76 -68 -159q-20 -59 -23 -96q-6 -63 15 -84q11 -11 28 -9.5t32.5 9.5t30.5 21q27 23 55 71q40 69 59 161zM106 296q-4 3 -4 10q1 13 14 23l3 3q5 4 12 6l2 2
q8 3 11 1t3 -10q-1 -13 -14 -23q-5 -3 -6 -4q-1 0 -6 -4l-6 -2q-2 -2 -5 -2h-4z" />
    <glyph glyph-name="k" unicode="k" horiz-adv-x="185" 
d="M204 89q7 14 -2 13q-12 -2 -20 -16l-5.5 -11t-9.5 -18t-10.5 -16.5t-12 -13.5t-9.5 -1q-5 2 -15 20q-2 5 -15 41t-27 45l-1 1q31 50 58 98q8 15 -3 15t-18 -12q-37 -67 -79 -131q-3 57 -2 115q54 106 85 172q45 95 71 167q7 18 11.5 31.5t7.5 31t2 34t-6 32.5
q-10 30 -33.5 43t-51.5 -3q-19 -11 -33.5 -35.5t-21 -43t-14.5 -46.5q-25 -93 -36 -276q-4 -64 -5 -112q-1 -19 -1 -46q-1 -89 7 -161q2 -14 17 1q11 10 10 18q-3 24 -5 51q4 2 7 6q7 8 16 17q12 -10 24 -53t33 -52q30 -13 84 91zM34 264q4 103 20 226q8 69 21 118
q1 2 3.5 12t4.5 16.5t5 16.5t6 17t7.5 13.5t9.5 9.5q12 9 27 7.5t24 -11.5q13 -13 18 -36q3 -11 3 -24.5t-1 -22.5t-6 -25.5t-7 -22t-10 -24.5t-9 -21q-27 -68 -66 -149q-21 -43 -50 -100zM203 84q-49 -93 -79 -93q-4 0 -8 1q-10 5 -17 15.5t-10 19t-8 24.5q-10 35 -21 46
q-9 -8 -15 -16l-6 -6q2 -25 5 -49q0 -7 -8 -16.5t-15 -10.5q-6 -1 -7 7q-8 72 -8 161q1 27 1 46q2 47 6 113q10 182 36 275q8 28 14 45.5t21 43t34 38.5q22 14 44 6q30 -10 43 -47q4 -13 5.5 -27t0.5 -26t-4.5 -26.5t-7 -25.5t-8.5 -26q-27 -71 -72 -167q-31 -66 -84 -171
q-1 -56 2 -111q40 62 76 127q4 8 11.5 11.5t11.5 0.5q7 -3 0 -16q-26 -47 -57 -97q16 -10 30 -54q7 -23 12 -32l2 -4q7 -13 12 -16q2 -1 5 0q13 4 37 53q3 6 3 7q5 8 13 13t12 3q6 -3 0 -14zM60 101l-1 -1q-10 -9 -16 -17q-3 -4 -6 -6h-1v-1q2 -27 5 -51q0 -4 -3.5 -9.5
t-8.5 -9.5t-8.5 -4.5t-3.5 4.5q-9 72 -8 161q0 28 1 46q1 47 5 112q11 183 37 275q7 28 13 45t21 42.5t33 37.5q21 14 42 6q29 -10 42 -45q5 -16 6 -32.5t-2.5 -33.5t-7.5 -30.5t-11 -32.5q-27 -71 -72 -167q-30 -65 -84 -172q-1 -58 2 -115v-4l3 4q41 63 78 130
q4 7 10.5 10t9.5 1q4 -2 -2 -13q-26 -47 -58 -98v-1l1 -1h1q15 -10 29 -53q8 -23 13 -33l2 -3q7 -14 13 -17q3 -2 7 -1q14 5 39 55q2 6 3 7q4 7 11 11.5t10 3t-2 -10.5l-2 -4q-8 -16 -15 -28t-20 -31.5t-25 -28t-22 -3.5q-10 4 -17 14.5t-10 18.5t-7 24q-11 37 -23 48z
M33 258l3 5q28 57 49 101q39 81 66 148q2 4 7 16q6 16 9.5 24.5t8.5 23.5t6.5 26t2 25t-3.5 27q-5 22 -18 36q-10 11 -25 12t-28 -8q-17 -12 -33 -76q-2 -8 -3 -10q-13 -49 -22 -118q-15 -123 -19 -226v-6zM161 688q-10 11 -26 11q-13 0 -23 -7q-17 -12 -33 -74
q-2 -8 -2 -11q-14 -48 -22 -117q-15 -119 -19 -220q27 54 47 95q38 80 66 148q2 6 6 16q7 16 10.5 24.5t8 24t6.5 26t2 24t-3 25.5q-6 22 -18 35z" />
    <glyph glyph-name="l" unicode="l" horiz-adv-x="153" 
d="M166 85q7 13 -3 12q-14 -2 -21 -14q-33 -61 -66 -48q-13 5 -27 44q-10 30 -12 86q-1 17 -1 32q88 155 101 179q51 96 80 177q7 19 11 32.5t8 32.5t3 36.5t-7 32.5q-11 31 -37 39.5t-51 -11.5q-41 -32 -75 -129q-62 -182 -61 -398v-13v-14v-13q2 -126 53 -145q20 -8 43 8
t37 35t25 39zM36 238q1 55 8 115q12 108 41 208q16 55 34 90q18 34 25 39q10 7 19.5 8t17 -3t13 -10.5t9.5 -15.5q8 -16 9 -34.5t-5 -40.5t-10.5 -35.5t-14.5 -36.5q-3 -8 -5 -12q-29 -72 -83 -170q-19 -36 -58 -102zM167 85q-4 -7 -8.5 -15t-14.5 -21.5t-20 -24t-23.5 -18
t-25.5 -7.5q-7 0 -14 2q-31 12 -42 52.5t-12 94.5v13t-1 14v4v9q-1 216 62 399q33 97 75 129q24 20 50 13q28 -8 41 -41q6 -16 6.5 -34t-4 -38.5t-8 -32.5t-10.5 -31q-29 -81 -80 -177q-24 -44 -73 -130q-18 -31 -28 -48q0 -14 1 -32q2 -56 13 -86v-1q13 -37 26 -42
q31 -12 63 47q4 7 13.5 12t14.5 2q5 -2 -1 -12zM180 728q6 0 12 -2q27 -8 39 -39q6 -16 7 -34t-3.5 -37.5t-8.5 -31.5t-10 -31q-30 -81 -80 -176q-24 -44 -73 -130q-18 -32 -28 -49v-1v-32q2 -56 13 -86l1 -2q13 -38 27 -43q34 -14 67 48q3 6 11.5 10.5t11.5 2.5q3 -1 -1 -9
q-5 -9 -12.5 -20.5t-23 -30.5t-33.5 -28t-34 -3q-50 19 -53 144v13v14v4v9q-1 216 61 398q34 97 74 128q17 14 36 14zM35 232l2 5q38 65 58 102q54 98 84 171q0 2 4 11q10 24 15 37.5t10.5 35.5t4.5 40.5t-8 34.5q-12 25 -30 30q-15 4 -32 -8q-9 -6 -22 -33q-2 -5 -3 -7
q-18 -34 -34 -90q-29 -100 -41 -207q-7 -60 -8 -116v-6zM45 353q-6 -57 -7 -110q35 61 55 97q54 98 83 171q2 5 5 11q9 24 14 37.5t10.5 35t4.5 39.5t-8 34q-11 23 -28 28q-14 4 -29 -7q-9 -6 -22 -33l-3 -6q-18 -34 -34 -90q-29 -100 -41 -207z" />
    <glyph glyph-name="m" unicode="m" horiz-adv-x="216" 
d="M229 107q2 -2 1 -7t-4.5 -11t-9.5 -13t-13 -13q-12 -11 -23 -7q-14 5 -23.5 27t-12.5 44v4q-4 44 -8 45q-3 0 -6 -1q-7 -5 -12 -31q0 -3 -1 -4q-1 -7 -4 -26q-7 -40 -11 -52q-2 -4 -8.5 -10.5t-11.5 -6.5q-4 1 -6 7q-4 20 -10 79q-2 15 -2 21q-1 5 -2 16q-1 26 -6 38
q-17 -36 -22 -90q-1 -56 0 -94q0 -6 -8.5 -15.5t-14.5 -9.5q-4 0 -5 6v3h1h-1q-2 44 1 80q0 83 3 148q0 7 7.5 16t13.5 8.5t6 -9.5v-36q8 17 18 31q6 8 12 8h1q3 0 6 -3q12 -15 15 -52q0 -7 1 -10v-10q3 -22 4 -36q12 60 37 74q10 6 17 2q14 -6 24 -65q9 -53 19 -57
q6 -3 14 4q19 14 24 8z" />
    <glyph glyph-name="n" unicode="n" horiz-adv-x="206" 
d="M226 106q9 -2 6 -18q-6 -30 -23.5 -60t-40.5 -31h-1q-10 0 -18 7t-13 21t-7.5 23t-5.5 24q-2 8 -2 10q-2 10 -6 31q-6 34 -11 50q-1 4 -2 10q-5 23 -11 29q-12 12 -20 10q-9 -3 -13 -19q-7 -30 -8 -90q-1 -53 -6 -80q-1 -4 -8.5 -12.5t-12.5 -8.5t-6 7q-16 96 -8 193
q0 6 6 13.5t12 10.5q4 2 6 0q3 -2 3 -9q-1 -9 -1 -20q15 54 46 57q11 1 19.5 -5t13.5 -13.5t10 -21.5t6.5 -22t4.5 -21q0 -1 1 -4l1 -4l6 -30q5 -27 8 -40q0 -3 1 -6q7 -29 13 -40q5 -9 12 -7.5t15 11t13.5 21.5t7.5 21q1 6 5.5 10t7.5 3z" />
    <glyph glyph-name="n" unicode="&#xf1;" horiz-adv-x="206" 
d="M226 106q9 -2 6 -18q-6 -30 -23.5 -60t-40.5 -31h-1q-10 0 -18 7t-13 21t-7.5 23t-5.5 24q-2 8 -2 10q-2 10 -6 31q-6 34 -11 50q-1 4 -2 10q-5 23 -11 29q-12 12 -20 10q-9 -3 -13 -19q-7 -30 -8 -90q-1 -53 -6 -80q-1 -4 -8.5 -12.5t-12.5 -8.5t-6 7q-16 96 -8 193
q0 6 6 13.5t12 10.5q4 2 6 0q3 -2 3 -9q-1 -9 -1 -20q15 54 46 57q11 1 19.5 -5t13.5 -13.5t10 -21.5t6.5 -22t4.5 -21q0 -1 1 -4l1 -4l6 -30q5 -27 8 -40q0 -3 1 -6q7 -29 13 -40q5 -9 12 -7.5t15 11t13.5 21.5t7.5 21q1 6 5.5 10t7.5 3z" />
    <glyph glyph-name="o" unicode="o" horiz-adv-x="214" 
d="M254 205q1 -6 -3 -14t-10 -9q-25 -7 -79 -7q9 -77 -25 -140q-21 -39 -53 -39q-6 0 -12 2q-15 4 -26 18t-15.5 25t-10.5 30l-1 2q-17 55 -11 105q5 42 24 52q10 6 22 1q5 -2 5 -7q2 -11 -9 -18q-5 -4 -10 -2h-2q-4 -7 -3.5 -31.5t4.5 -48.5q5 -26 19.5 -59.5t30.5 -39.5
q9 -3 18 5q21 18 27.5 62t2.5 72q0 5 -1 10q-42 -2 -59 15q-13 13 -12 32q0 20 16 34q15 13 32 9q12 -3 22 -13.5t14 -23.5q5 -11 8 -24h6q55 0 80 7q4 1 7 -0.5t4 -4.5zM129 203q-4 13 -11 22q-9 13 -22 11q-4 -1 -6 -6q-4 -11 11 -21q10 -6 28 -6z" />
    <glyph glyph-name="o" unicode="&#xf8;" horiz-adv-x="214" 
d="M254 205q1 -6 -3 -14t-10 -9q-25 -7 -79 -7q9 -77 -25 -140q-21 -39 -53 -39q-6 0 -12 2q-15 4 -26 18t-15.5 25t-10.5 30l-1 2q-17 55 -11 105q5 42 24 52q10 6 22 1q5 -2 5 -7q2 -11 -9 -18q-5 -4 -10 -2h-2q-4 -7 -3.5 -31.5t4.5 -48.5q5 -26 19.5 -59.5t30.5 -39.5
q9 -3 18 5q21 18 27.5 62t2.5 72q0 5 -1 10q-42 -2 -59 15q-13 13 -12 32q0 20 16 34q15 13 32 9q12 -3 22 -13.5t14 -23.5q5 -11 8 -24h6q55 0 80 7q4 1 7 -0.5t4 -4.5zM129 203q-4 13 -11 22q-9 13 -22 11q-4 -1 -6 -6q-4 -11 11 -21q10 -6 28 -6z" />
    <glyph glyph-name="o" unicode="&#xf6;" horiz-adv-x="214" 
d="M254 205q1 -6 -3 -14t-10 -9q-25 -7 -79 -7q9 -77 -25 -140q-21 -39 -53 -39q-6 0 -12 2q-15 4 -26 18t-15.5 25t-10.5 30l-1 2q-17 55 -11 105q5 42 24 52q10 6 22 1q5 -2 5 -7q2 -11 -9 -18q-5 -4 -10 -2h-2q-4 -7 -3.5 -31.5t4.5 -48.5q5 -26 19.5 -59.5t30.5 -39.5
q9 -3 18 5q21 18 27.5 62t2.5 72q0 5 -1 10q-42 -2 -59 15q-13 13 -12 32q0 20 16 34q15 13 32 9q12 -3 22 -13.5t14 -23.5q5 -11 8 -24h6q55 0 80 7q4 1 7 -0.5t4 -4.5zM129 203q-4 13 -11 22q-9 13 -22 11q-4 -1 -6 -6q-4 -11 11 -21q10 -6 28 -6z" />
    <glyph glyph-name="o" unicode="&#xf5;" horiz-adv-x="214" 
d="M254 205q1 -6 -3 -14t-10 -9q-25 -7 -79 -7q9 -77 -25 -140q-21 -39 -53 -39q-6 0 -12 2q-15 4 -26 18t-15.5 25t-10.5 30l-1 2q-17 55 -11 105q5 42 24 52q10 6 22 1q5 -2 5 -7q2 -11 -9 -18q-5 -4 -10 -2h-2q-4 -7 -3.5 -31.5t4.5 -48.5q5 -26 19.5 -59.5t30.5 -39.5
q9 -3 18 5q21 18 27.5 62t2.5 72q0 5 -1 10q-42 -2 -59 15q-13 13 -12 32q0 20 16 34q15 13 32 9q12 -3 22 -13.5t14 -23.5q5 -11 8 -24h6q55 0 80 7q4 1 7 -0.5t4 -4.5zM129 203q-4 13 -11 22q-9 13 -22 11q-4 -1 -6 -6q-4 -11 11 -21q10 -6 28 -6z" />
    <glyph glyph-name="o" unicode="&#xf4;" horiz-adv-x="214" 
d="M254 205q1 -6 -3 -14t-10 -9q-25 -7 -79 -7q9 -77 -25 -140q-21 -39 -53 -39q-6 0 -12 2q-15 4 -26 18t-15.5 25t-10.5 30l-1 2q-17 55 -11 105q5 42 24 52q10 6 22 1q5 -2 5 -7q2 -11 -9 -18q-5 -4 -10 -2h-2q-4 -7 -3.5 -31.5t4.5 -48.5q5 -26 19.5 -59.5t30.5 -39.5
q9 -3 18 5q21 18 27.5 62t2.5 72q0 5 -1 10q-42 -2 -59 15q-13 13 -12 32q0 20 16 34q15 13 32 9q12 -3 22 -13.5t14 -23.5q5 -11 8 -24h6q55 0 80 7q4 1 7 -0.5t4 -4.5zM129 203q-4 13 -11 22q-9 13 -22 11q-4 -1 -6 -6q-4 -11 11 -21q10 -6 28 -6z" />
    <glyph glyph-name="o" unicode="&#xf3;" horiz-adv-x="214" 
d="M254 205q1 -6 -3 -14t-10 -9q-25 -7 -79 -7q9 -77 -25 -140q-21 -39 -53 -39q-6 0 -12 2q-15 4 -26 18t-15.5 25t-10.5 30l-1 2q-17 55 -11 105q5 42 24 52q10 6 22 1q5 -2 5 -7q2 -11 -9 -18q-5 -4 -10 -2h-2q-4 -7 -3.5 -31.5t4.5 -48.5q5 -26 19.5 -59.5t30.5 -39.5
q9 -3 18 5q21 18 27.5 62t2.5 72q0 5 -1 10q-42 -2 -59 15q-13 13 -12 32q0 20 16 34q15 13 32 9q12 -3 22 -13.5t14 -23.5q5 -11 8 -24h6q55 0 80 7q4 1 7 -0.5t4 -4.5zM129 203q-4 13 -11 22q-9 13 -22 11q-4 -1 -6 -6q-4 -11 11 -21q10 -6 28 -6z" />
    <glyph glyph-name="o" unicode="&#xf2;" horiz-adv-x="214" 
d="M254 205q1 -6 -3 -14t-10 -9q-25 -7 -79 -7q9 -77 -25 -140q-21 -39 -53 -39q-6 0 -12 2q-15 4 -26 18t-15.5 25t-10.5 30l-1 2q-17 55 -11 105q5 42 24 52q10 6 22 1q5 -2 5 -7q2 -11 -9 -18q-5 -4 -10 -2h-2q-4 -7 -3.5 -31.5t4.5 -48.5q5 -26 19.5 -59.5t30.5 -39.5
q9 -3 18 5q21 18 27.5 62t2.5 72q0 5 -1 10q-42 -2 -59 15q-13 13 -12 32q0 20 16 34q15 13 32 9q12 -3 22 -13.5t14 -23.5q5 -11 8 -24h6q55 0 80 7q4 1 7 -0.5t4 -4.5zM129 203q-4 13 -11 22q-9 13 -22 11q-4 -1 -6 -6q-4 -11 11 -21q10 -6 28 -6z" />
    <glyph glyph-name="p" unicode="p" horiz-adv-x="190" 
d="M55 -328q0 -3 -1 -20q-4 -135 1 -154q3 0 6 -3q7 -10 -4 -24l-2 -4q-7 -8 -13 -8h-1q-17 4 -14 41v10v100q1 105 2 215q2 227 7 382l-15 -9l-4 -3q-6 -3 -9 -1q-3 1 -3 6q0 6 4 15t9 12q11 7 19 12v5q1 4 1 6q0 3 2.5 8t6.5 9t8 6t7 1q3 -2 3 -9v-8v-5q38 14 70 -4
q23 -13 36 -38.5t13 -57.5q0 -53 -37 -111t-89 -65q-1 -48 -1 -96q-2 -105 -2 -208zM59 10q37 0 66 37q19 26 27 59t1 59q-13 44 -54 55q-17 5 -35 0q-3 -98 -5 -210z" />
    <glyph glyph-name="q" unicode="q" horiz-adv-x="183" 
d="M255 -385q3 -93 -33 -143q-19 -28 -41 -28h-4q-21 4 -32 35q-13 42 -16 99.5t0 104.5q1 33 1 50q0 5 1 14v9q-5 -2 -9 -4q-5 -3 -16 -10q-27 -17 -44 -22q-4 -1 -7 1q-3 3 -1 11q5 19 16 23q12 3 38 19q15 10 23 14q1 69 4 219l1 35q-18 -20 -43 -42l-4 -4
q-35 -31 -56 -24q-16 6 -21 22.5t-5 42.5v7q-2 55 10 110q21 92 55 111q13 7 27 1q16 -6 40 -41v3v3v13t5 12.5t11 10.5q5 3 8 1t3 -9q0 -90 -4 -272q-3 -127 -3 -190q21 2 39 -14q19 -17 32 -47t18.5 -60t6.5 -61zM220 -476q26 103 -25 198q-17 31 -37 37v-8v-5v-6
q-1 -67 0 -107v-2q0 -52 4 -78v-7q5 -39 13 -51q9 -13 18 -11q8 2 16 14t11 26zM34 77q0 -26 2 -38q3 -22 12 -27q8 -5 26 3q24 11 62 61q1 31 1 53v5q0 24 -14 48.5t-33 41.5q-9 7 -13 7h-1q-5 0 -14 -12q-11 -16 -20 -62q0 -1 -0.5 -4t-0.5 -4q-7 -35 -7 -70v-2z" />
    <glyph glyph-name="r" unicode="r" horiz-adv-x="174" 
d="M151 148q10 2 15 20q1 13 -7 12q-30 -8 -57 7q-7 4 -17.5 15t-17.5 14q-16 8 -29 -9l-4 50q-4 12 -13 -7q-12 -27 -9 -64v-2v-2v0q3 -32 3 -62q-1 -7 -1 -9q-7 -53 -6 -101q1 -17 15 -3q9 10 10 18q4 50 4 101q5 52 11 63q1 -6 22.5 -22t25.5 -18q25 -9 55 -1zM34 25
q0 -6 -7.5 -15.5t-13.5 -9.5t-6 10q-2 48 5 101q1 3 1 9q1 30 -2 62v1v1v0.5v1.5q-3 27 3.5 51t14.5 25q4 1 6 -5q1 -1 3 -30q1 -13 1 -16q13 14 29 6q7 -3 17 -14q11 -11 17 -15q27 -14 56 -7q8 2 9 -4q2 -7 -3.5 -18t-12.5 -13q-30 -7 -55 2q-4 1 -23.5 15t-24.5 23
q-5 -15 -9 -60q-1 -51 -5 -101zM16 120q0 30 -2 62v1v1q-1 1 -1 2q-1 18 1.5 36t7 27.5t8.5 10.5q2 0 3 -3q0 -2 2 -30q1 -13 2 -20v-3l2 3q13 16 28 8q6 -3 16 -14q11 -12 18 -15q28 -15 58 -7q5 1 6 -3q1 -5 -4 -15.5t-11 -11.5q-29 -7 -53 1q-6 3 -26.5 18.5t-21.5 20.5
v5l-2 -4q-6 -12 -11 -64q0 -51 -4 -100q-1 -6 -7.5 -14.5t-11.5 -8.5q-3 0 -3 7q-2 48 5 101q0 1 1 9z" />
    <glyph glyph-name="s" unicode="s" horiz-adv-x="118" 
d="M203 156q2 -3 -4 -9.5t-12 -10.5q-11 -7 -36 -21q-18 -10 -26 -15q-2 -28 -16 -53t-35 -39q-19 -12 -36 -12q-13 0 -21 8q-9 13 -9 20.5t7 21.5q9 18 29 32.5t53 32.5q-5 16 -17 24.5t-33 17.5q-17 6 -27 14t-13 18q-6 16 8 38q11 16 27 28.5t32 14.5q17 2 30 -10
q4 -5 2 -12.5t-8 -13.5q-7 -8 -12 -4q-9 8 -23 6.5t-24 -10.5q-13 -11 -4 -24q6 -8 31 -16q8 -3 12 -4q37 -16 45 -53v-1q11 6 20 10q56 31 60 22zM41 34q0 -4 8 -6q13 -3 25 5q21 15 25 51q-61 -36 -58 -50z" />
    <glyph glyph-name="t" unicode="t" horiz-adv-x="169" 
d="M158 302q5 -2 5 -11q0 -15 -8 -20q-27 -16 -61 -38q-3 -58 -2 -78q1 -44 4 -77v-5q2 -23 7 -31q4 -7 7 -8t8 5t8 13q4 12 17 14q6 1 10 -4t1 -13q-19 -49 -50 -49l-1 1h-2q-31 2 -35 64v4q-3 38 0 146q-31 -20 -49 -32q-6 -4 -10 1q-3 5 -1.5 15.5t6.5 13.5q21 14 55 36
q2 62 8 172q1 33 2 42q0 12 14 19q6 4 11 1t5 -10l-5 -75q-5 -87 -7 -131q33 21 56 34q4 3 7 1z" />
    <glyph glyph-name="u" unicode="u" horiz-adv-x="182" 
d="M176 236q-1 -20 -4 -63q-6 -106 -2 -159q1 -5 -4.5 -13.5t-11.5 -12.5q-3 -2 -6 -2h-2q-2 2 -3 6q-3 47 0 116q-6 -13 -12 -24q-15 -30 -34 -53t-40 -30q-12 -5 -22 2q-35 27 -27 217q-1 2 -1 7l2 15q1 6 9 15.5t13 9.5q6 -1 6 -10v-4q-2 -68 -1 -103v-13
q-1 -9 -0.5 -24.5t1.5 -30.5t4.5 -27.5t9.5 -15.5q8 -4 18 0q28 11 54 78q12 32 25 102l1 6q0 3 4 8t9 9t9 4q5 -1 5 -10z" />
    <glyph glyph-name="u" unicode="&#xfc;" horiz-adv-x="182" 
d="M176 236q-1 -20 -4 -63q-6 -106 -2 -159q1 -5 -4.5 -13.5t-11.5 -12.5q-3 -2 -6 -2h-2q-2 2 -3 6q-3 47 0 116q-6 -13 -12 -24q-15 -30 -34 -53t-40 -30q-12 -5 -22 2q-35 27 -27 217q-1 2 -1 7l2 15q1 6 9 15.5t13 9.5q6 -1 6 -10v-4q-2 -68 -1 -103v-13
q-1 -9 -0.5 -24.5t1.5 -30.5t4.5 -27.5t9.5 -15.5q8 -4 18 0q28 11 54 78q12 32 25 102l1 6q0 3 4 8t9 9t9 4q5 -1 5 -10z" />
    <glyph glyph-name="u" unicode="&#xfb;" horiz-adv-x="182" 
d="M176 236q-1 -20 -4 -63q-6 -106 -2 -159q1 -5 -4.5 -13.5t-11.5 -12.5q-3 -2 -6 -2h-2q-2 2 -3 6q-3 47 0 116q-6 -13 -12 -24q-15 -30 -34 -53t-40 -30q-12 -5 -22 2q-35 27 -27 217q-1 2 -1 7l2 15q1 6 9 15.5t13 9.5q6 -1 6 -10v-4q-2 -68 -1 -103v-13
q-1 -9 -0.5 -24.5t1.5 -30.5t4.5 -27.5t9.5 -15.5q8 -4 18 0q28 11 54 78q12 32 25 102l1 6q0 3 4 8t9 9t9 4q5 -1 5 -10z" />
    <glyph glyph-name="u" unicode="&#xfa;" horiz-adv-x="182" 
d="M176 236q-1 -20 -4 -63q-6 -106 -2 -159q1 -5 -4.5 -13.5t-11.5 -12.5q-3 -2 -6 -2h-2q-2 2 -3 6q-3 47 0 116q-6 -13 -12 -24q-15 -30 -34 -53t-40 -30q-12 -5 -22 2q-35 27 -27 217q-1 2 -1 7l2 15q1 6 9 15.5t13 9.5q6 -1 6 -10v-4q-2 -68 -1 -103v-13
q-1 -9 -0.5 -24.5t1.5 -30.5t4.5 -27.5t9.5 -15.5q8 -4 18 0q28 11 54 78q12 32 25 102l1 6q0 3 4 8t9 9t9 4q5 -1 5 -10z" />
    <glyph glyph-name="u" unicode="&#xf9;" horiz-adv-x="182" 
d="M176 236q-1 -20 -4 -63q-6 -106 -2 -159q1 -5 -4.5 -13.5t-11.5 -12.5q-3 -2 -6 -2h-2q-2 2 -3 6q-3 47 0 116q-6 -13 -12 -24q-15 -30 -34 -53t-40 -30q-12 -5 -22 2q-35 27 -27 217q-1 2 -1 7l2 15q1 6 9 15.5t13 9.5q6 -1 6 -10v-4q-2 -68 -1 -103v-13
q-1 -9 -0.5 -24.5t1.5 -30.5t4.5 -27.5t9.5 -15.5q8 -4 18 0q28 11 54 78q12 32 25 102l1 6q0 3 4 8t9 9t9 4q5 -1 5 -10z" />
    <glyph glyph-name="v" unicode="v" horiz-adv-x="288" 
d="M322 190q6 0 6 -6q0 -5 -3 -12t-8 -12.5t-10 -5.5q-4 0 -17 -1q-61 -6 -87 1h-1q-1 -4 -2 -5q-4 -9 -17 -34q-33 -66 -48 -100q-1 -2 -3 -4q-6 -12 -12 -14h-4q-5 0 -10 2q-10 4 -13 17q-10 36 -24.5 73t-25.5 61t-34 71l-2 2q-3 7 3 17.5t13 14.5q7 3 9 -3
q54 -108 86 -220q13 28 40 82l14 28q4 7 11 21q-14 9 -17 25q-5 28 21 55q27 26 54 21q8 -2 5 -15q-4 -22 -23 -58q4 -1 13 -2h3q22 -2 66 0q12 1 16 1h1zM216 228q-14 -1 -19 -10q-4 -6 1 -15l5 -5q9 17 13 30z" />
    <glyph glyph-name="w" unicode="w" horiz-adv-x="269" 
d="M308 209q1 -5 -3 -13t-10 -9q-26 -8 -79 -8q3 -19 4 -60v-7q0 -33 -13 -73t-35 -40h-5q-37 0 -51.5 17t-25.5 61q-13 -44 -33 -51q-10 -4 -19 2q-32 24 -32 189v4q0 3 3.5 9t8.5 10.5t9 5.5q5 0 6 -7q1 -6 2 -10q0 -4 -2 -8q1 -37 4 -71q1 -5 2 -16q3 -40 9 -54
q6 -13 11 -12q6 1 10 18t5 33q2 24 -2 58v3q0 1 -1 4v3v2q-1 2 -1 3q-1 6 6.5 16.5t14.5 11.5q5 1 6 -6q8 -64 15 -95l3 -12q12 -57 30 -69q11 -6 20 -2q17 8 23 57v1q0 2 1 5v2q6 38 2 67q0 2 -0.5 5.5t-0.5 5.5q-10 -1 -17 -1q-28 1 -42 16q-13 13 -12 31q0 21 16 35
q15 13 32 9q16 -4 28 -22q1 -1 1 -2q5 -6 7 -13q3 -8 5 -16q2 -4 3 -8h6q55 0 80 6q8 3 11 -5zM183 208q-4 13 -11 22q-6 7 -15 10q-3 1 -5 1h-1h-1q-4 -1 -6 -6q-4 -11 11 -21l1 -1q9 -6 27 -5z" />
    <glyph glyph-name="x" unicode="x" horiz-adv-x="240" 
d="M251 38q4 -3 3 -10t-5.5 -13.5t-9.5 -7.5q-4 -2 -7 0q-57 48 -118 116q-45 -69 -92 -130q-6 -8 -10 -8q-1 0 -1 1q-3 0 -5 4q-4 10 4 21q46 60 91 127q-24 28 -54 64q-2 3 -9 10q-24 24 -23 38q0 7 6 15t13 8h2q6 0 6 -6v-2q0 -2 -1 -5q5 -8 33 -37q8 -9 10 -12
q18 -21 37 -42q27 42 48 77q9 14 17.5 9t-0.5 -20q-22 -36 -52 -82q59 -66 117 -115z" />
    <glyph glyph-name="y" unicode="y" horiz-adv-x="273" 
d="M302 78q5 6 3 14.5t-8.5 10.5t-14.5 -7q-40 -49 -86 -136q3 126 0 309q-1 15 -18 -6q-7 -8 -8 -12q-17 -83 -28 -119q-8 -25 -17 -48q-14 -39 -31 -44q-11 -4 -19 18q0 2 -1 3q-15 48 -18 69t-5 73q0 12 -14 -2q-11 -11 -11 -20q0 -21 3 -47t9.5 -63.5t22.5 -56.5t38 -8
q7 4 13.5 10.5t11 13t9 17t7 17t6 17.5t5.5 15q10 29 20 66q2 -144 -2 -254l-33.5 -67t-37.5 -74q-23 -46 -33.5 -66.5t-27.5 -61.5t-24 -75.5t-6 -68.5q0 -27 18 -37t43 1q45 18 73 76q20 42 33 136q11 87 17 184q1 21 2 45q63 121 109 178zM166 -154q-4 -76 -12 -142
q0 -6 -3 -33t-4.5 -38.5t-5.5 -33t-9.5 -37.5t-13.5 -31q-8 -13 -21.5 -26t-31 -20t-29.5 9t8 90q16 61 63 146q15 29 59 116zM69 -542q-14 -6 -26 -6t-21 6q-16 11 -17 37q-1 43 14.5 94.5t30 83t43.5 87.5l4 7q13 25 41 82q19 39 29 59q4 106 3 244q-9 -31 -18 -56
q-1 -5 -4 -14q-7 -20 -11.5 -31t-15 -25.5t-22.5 -20.5q-16 -8 -29 0q-18 11 -29.5 55.5t-13.5 72t-3 48.5q0 7 8.5 17.5t15.5 10.5q4 0 5 -6q1 -52 4 -72.5t19 -69.5q6 -20 15 -20t18.5 15.5t14.5 27.5l16 48q12 36 29 119q1 5 9.5 15t13.5 10h1q4 -1 4 -7q3 -180 0 -304
q45 84 84 132q7 9 15 8q6 -2 9 -9q4 -11 -2 -19q-46 -56 -108 -177q-1 -26 -3 -45q-5 -97 -17 -184q-13 -94 -33 -137q-29 -58 -73 -76zM173 172l-3 -10q-10 -37 -20 -65q-2 -5 -5 -14q-5 -14 -8 -22.5t-9 -20.5t-13.5 -20t-16.5 -13q-14 -7 -26 0q-14 8 -23.5 33.5
t-14 58.5t-6 51t-1.5 31q0 4 4 10t9 10.5t8 4.5q2 0 2 -3q1 -52 4.5 -73t18.5 -69q7 -22 18 -23q5 0 10.5 5t9.5 11t8 13.5t5.5 10.5t1.5 5q9 24 17 48q11 36 28 119q1 5 9 14t12 9q2 0 2 -4q4 -184 0 -309v-6l3 5q47 88 86 136q6 8 12 7q5 -1 8 -7q3 -9 -3 -16
q-46 -57 -108 -178v-1q-1 -25 -2 -44q-6 -98 -18 -185q-12 -94 -33 -136q-27 -57 -71 -75q-27 -11 -44 0q-16 10 -16 35q-1 43 14 94t30 82.5t43 86.5l4 8q13 25 41 81q20 41 30 60v1q4 110 3 254v10zM57 -518q1 0 2 1q17 1 34.5 17t25.5 31q23 43 34 147q2 18 3 26
q7 66 11 142l1 6l-10 -20q-36 -70 -52 -101q-47 -86 -64 -146q0 -1 -1 -6q-20 -69 -6 -85q9 -12 22 -12zM153 -296q7 63 11 135l-4 -8q-35 -71 -52 -101q-47 -86 -63 -146q0 -1 -0.5 -3t-0.5 -3q-20 -67 -7 -83q9 -11 22 -10q16 2 33 17.5t24 29.5q24 42 34 146q2 18 3 26z
" />
    <glyph glyph-name="y" unicode="&#xff;" horiz-adv-x="273" 
d="M302 78q5 6 3 14.5t-8.5 10.5t-14.5 -7q-40 -49 -86 -136q3 126 0 309q-1 15 -18 -6q-7 -8 -8 -12q-17 -83 -28 -119q-8 -25 -17 -48q-14 -39 -31 -44q-11 -4 -19 18q0 2 -1 3q-15 48 -18 69t-5 73q0 12 -14 -2q-11 -11 -11 -20q0 -21 3 -47t9.5 -63.5t22.5 -56.5t38 -8
q7 4 13.5 10.5t11 13t9 17t7 17t6 17.5t5.5 15q10 29 20 66q2 -144 -2 -254l-33.5 -67t-37.5 -74q-23 -46 -33.5 -66.5t-27.5 -61.5t-24 -75.5t-6 -68.5q0 -27 18 -37t43 1q45 18 73 76q20 42 33 136q11 87 17 184q1 21 2 45q63 121 109 178zM166 -154q-4 -76 -12 -142
q0 -6 -3 -33t-4.5 -38.5t-5.5 -33t-9.5 -37.5t-13.5 -31q-8 -13 -21.5 -26t-31 -20t-29.5 9t8 90q16 61 63 146q15 29 59 116zM69 -542q-14 -6 -26 -6t-21 6q-16 11 -17 37q-1 43 14.5 94.5t30 83t43.5 87.5l4 7q13 25 41 82q19 39 29 59q4 106 3 244q-9 -31 -18 -56
q-1 -5 -4 -14q-7 -20 -11.5 -31t-15 -25.5t-22.5 -20.5q-16 -8 -29 0q-18 11 -29.5 55.5t-13.5 72t-3 48.5q0 7 8.5 17.5t15.5 10.5q4 0 5 -6q1 -52 4 -72.5t19 -69.5q6 -20 15 -20t18.5 15.5t14.5 27.5l16 48q12 36 29 119q1 5 9.5 15t13.5 10h1q4 -1 4 -7q3 -180 0 -304
q45 84 84 132q7 9 15 8q6 -2 9 -9q4 -11 -2 -19q-46 -56 -108 -177q-1 -26 -3 -45q-5 -97 -17 -184q-13 -94 -33 -137q-29 -58 -73 -76zM173 172l-3 -10q-10 -37 -20 -65q-2 -5 -5 -14q-5 -14 -8 -22.5t-9 -20.5t-13.5 -20t-16.5 -13q-14 -7 -26 0q-14 8 -23.5 33.5
t-14 58.5t-6 51t-1.5 31q0 4 4 10t9 10.5t8 4.5q2 0 2 -3q1 -52 4.5 -73t18.5 -69q7 -22 18 -23q5 0 10.5 5t9.5 11t8 13.5t5.5 10.5t1.5 5q9 24 17 48q11 36 28 119q1 5 9 14t12 9q2 0 2 -4q4 -184 0 -309v-6l3 5q47 88 86 136q6 8 12 7q5 -1 8 -7q3 -9 -3 -16
q-46 -57 -108 -178v-1q-1 -25 -2 -44q-6 -98 -18 -185q-12 -94 -33 -136q-27 -57 -71 -75q-27 -11 -44 0q-16 10 -16 35q-1 43 14 94t30 82.5t43 86.5l4 8q13 25 41 81q20 41 30 60v1q4 110 3 254v10zM57 -518q1 0 2 1q17 1 34.5 17t25.5 31q23 43 34 147q2 18 3 26
q7 66 11 142l1 6l-10 -20q-36 -70 -52 -101q-47 -86 -64 -146q0 -1 -1 -6q-20 -69 -6 -85q9 -12 22 -12zM153 -296q7 63 11 135l-4 -8q-35 -71 -52 -101q-47 -86 -63 -146q0 -1 -0.5 -3t-0.5 -3q-20 -67 -7 -83q9 -11 22 -10q16 2 33 17.5t24 29.5q24 42 34 146q2 18 3 26z
" />
    <glyph glyph-name="y" unicode="&#xfd;" horiz-adv-x="273" 
d="M302 78q5 6 3 14.5t-8.5 10.5t-14.5 -7q-40 -49 -86 -136q3 126 0 309q-1 15 -18 -6q-7 -8 -8 -12q-17 -83 -28 -119q-8 -25 -17 -48q-14 -39 -31 -44q-11 -4 -19 18q0 2 -1 3q-15 48 -18 69t-5 73q0 12 -14 -2q-11 -11 -11 -20q0 -21 3 -47t9.5 -63.5t22.5 -56.5t38 -8
q7 4 13.5 10.5t11 13t9 17t7 17t6 17.5t5.5 15q10 29 20 66q2 -144 -2 -254l-33.5 -67t-37.5 -74q-23 -46 -33.5 -66.5t-27.5 -61.5t-24 -75.5t-6 -68.5q0 -27 18 -37t43 1q45 18 73 76q20 42 33 136q11 87 17 184q1 21 2 45q63 121 109 178zM166 -154q-4 -76 -12 -142
q0 -6 -3 -33t-4.5 -38.5t-5.5 -33t-9.5 -37.5t-13.5 -31q-8 -13 -21.5 -26t-31 -20t-29.5 9t8 90q16 61 63 146q15 29 59 116zM69 -542q-14 -6 -26 -6t-21 6q-16 11 -17 37q-1 43 14.5 94.5t30 83t43.5 87.5l4 7q13 25 41 82q19 39 29 59q4 106 3 244q-9 -31 -18 -56
q-1 -5 -4 -14q-7 -20 -11.5 -31t-15 -25.5t-22.5 -20.5q-16 -8 -29 0q-18 11 -29.5 55.5t-13.5 72t-3 48.5q0 7 8.5 17.5t15.5 10.5q4 0 5 -6q1 -52 4 -72.5t19 -69.5q6 -20 15 -20t18.5 15.5t14.5 27.5l16 48q12 36 29 119q1 5 9.5 15t13.5 10h1q4 -1 4 -7q3 -180 0 -304
q45 84 84 132q7 9 15 8q6 -2 9 -9q4 -11 -2 -19q-46 -56 -108 -177q-1 -26 -3 -45q-5 -97 -17 -184q-13 -94 -33 -137q-29 -58 -73 -76zM173 172l-3 -10q-10 -37 -20 -65q-2 -5 -5 -14q-5 -14 -8 -22.5t-9 -20.5t-13.5 -20t-16.5 -13q-14 -7 -26 0q-14 8 -23.5 33.5
t-14 58.5t-6 51t-1.5 31q0 4 4 10t9 10.5t8 4.5q2 0 2 -3q1 -52 4.5 -73t18.5 -69q7 -22 18 -23q5 0 10.5 5t9.5 11t8 13.5t5.5 10.5t1.5 5q9 24 17 48q11 36 28 119q1 5 9 14t12 9q2 0 2 -4q4 -184 0 -309v-6l3 5q47 88 86 136q6 8 12 7q5 -1 8 -7q3 -9 -3 -16
q-46 -57 -108 -178v-1q-1 -25 -2 -44q-6 -98 -18 -185q-12 -94 -33 -136q-27 -57 -71 -75q-27 -11 -44 0q-16 10 -16 35q-1 43 14 94t30 82.5t43 86.5l4 8q13 25 41 81q20 41 30 60v1q4 110 3 254v10zM57 -518q1 0 2 1q17 1 34.5 17t25.5 31q23 43 34 147q2 18 3 26
q7 66 11 142l1 6l-10 -20q-36 -70 -52 -101q-47 -86 -64 -146q0 -1 -1 -6q-20 -69 -6 -85q9 -12 22 -12zM153 -296q7 63 11 135l-4 -8q-35 -71 -52 -101q-47 -86 -63 -146q0 -1 -0.5 -3t-0.5 -3q-20 -67 -7 -83q9 -11 22 -10q16 2 33 17.5t24 29.5q24 42 34 146q2 18 3 26z
" />
    <glyph glyph-name="z" unicode="z" horiz-adv-x="184" 
d="M169 66q5 1 8 -1q3 -3 1 -11q-4 -19 -16 -23q-27 -8 -48 -14t-41 -11q-4 0 -11 -2q-21 -6 -31 -6q-15 0 -22 9q-11 14 28 60l3 3q19 22 41 48l21 26q5 5 10 11q13 15 19 23q28 30 21 43q-13 22 -104 1q-6 -9 -13 -10q-3 -1 -5 1l-8 3q-6 1 -7 7q0 7 6.5 17t11.5 11
q20 6 44 10t53 2t41 -14q13 -13 5 -37q-9 -29 -49 -74q-8 -10 -12 -14l-49 -58l-10.5 -10.5t-11.5 -12.5q-2 -2 -1 -5t4 -3q15 0 47 9l12 3q29 8 63 19z" />
    <glyph glyph-name="nonbreakingspace" unicode="&#xa0;" horiz-adv-x="274" 
 />
    <glyph glyph-name="softhyphen" unicode="&#xad;" 
 />
    </font>
</defs>
</svg>
